{
  "info_section": {
    "table_id": "0xfc",
    "section_syntax_indicator": false,
    "private": false,
    "reserved": "0x3",
    "section_length": 51,
    "protocol_version": 0,
    "encrypted_packet": false,
    "encryption_algorithm": 0,
    "pts_adjustment": 0.0,
    "cw_index": "0x0",
    "tier": "0xfff",
    "splice_command_length": 15,
    "splice_command_type": 5,
    "descriptor_loop_length": 19,
    "crc": "0xfc303300"
  },
  "command": {
    "name": "Splice Insert",
    "splice_event_id": 8952711,
    "splice_event_cancel_indicator": false,
    "out_of_network_indicator": false,
    "program_splice_flag": true,
    "duration_flag": false,
    "splice_immediate_flag": false,
    "time_specified_flag": true,
    "pts_time": 54795.3125,
    "unique_program_id": 0,
    "avail_num": 0,
    "avail_expected": 0
  }
}
['IN', 'COOKHD-6216.dfw.1080', 'fb06612e-6e59-4bd5-a7ba-c3b0a16f93db', '/DAzAAAAAAAAAP/wDwUAiJuHf0//JfHpDQAAAAAAEwAFU0FQUwEBCkNVRUkAnzQ5NCNKxqLo', 'PTS-4931578125\n']

{
  "info_section": {
    "table_id": "0xfc",
    "section_syntax_indicator": false,
    "private": false,
    "reserved": "0x3",
    "section_length": 56,
    "protocol_version": 0,
    "encrypted_packet": false,
    "encryption_algorithm": 0,
    "pts_adjustment": 0.0,
    "cw_index": "0x0",
    "tier": "0xfff",
    "splice_command_length": 20,
    "splice_command_type": 5,
    "descriptor_loop_length": 19,
    "crc": "0xfc303800"
  },
  "command": {
    "name": "Splice Insert",
    "splice_event_id": 8952701,
    "splice_event_cancel_indicator": false,
    "out_of_network_indicator": true,
    "program_splice_flag": true,
    "duration_flag": true,
    "splice_immediate_flag": false,
    "time_specified_flag": true,
    "pts_time": 54735.219133,
    "break_auto_return": false,
    "break_duration": 59.993267,
    "unique_program_id": 0,
    "avail_num": 0,
    "avail_expected": 0
  }
}
['IN', 'COOKHD-6216.dfw.1080', '261fc984-d3bc-4eef-9238-2321fa5295f9', '/DA4AAAAAAAAAP/wFAUAiJt9f+//JZ9ien4AUmNiAAAAAAATAAVTQVBTAQEKQ1VFSQCfNDk0KnjChEA=', 'PTS-4926169722\n']

{
  "info_section": {
    "table_id": "0xfc",
    "section_syntax_indicator": false,
    "private": false,
    "reserved": "0x3",
    "section_length": 51,
    "protocol_version": 0,
    "encrypted_packet": false,
    "encryption_algorithm": 0,
    "pts_adjustment": 0.0,
    "cw_index": "0x0",
    "tier": "0xfff",
    "splice_command_length": 15,
    "splice_command_type": 5,
    "descriptor_loop_length": 19,
    "crc": "0xfc303300"
  },
  "command": {
    "name": "Splice Insert",
    "splice_event_id": 8082531,
    "splice_event_cancel_indicator": false,
    "out_of_network_indicator": false,
    "program_splice_flag": true,
    "duration_flag": false,
    "splice_immediate_flag": false,
    "time_specified_flag": true,
    "pts_time": 53489.508,
    "unique_program_id": 0,
    "avail_num": 0,
    "avail_expected": 0
  }
}
['IN', 'COOKHD-6216.dfw.1080', '21fd4c26-3aea-4abb-8206-40da6b885662', '/DAzAAAAAAAAAP/wDwUAe1Rjf0//HvCpKAAAAAAAEwAFU0FQUwEBCkNVRUkAnzQ5NCOXFCTt', 'PTS-4814055720\n']

{
  "info_section": {
    "table_id": "0xfc",
    "section_syntax_indicator": false,
    "private": false,
    "reserved": "0x3",
    "section_length": 56,
    "protocol_version": 0,
    "encrypted_packet": false,
    "encryption_algorithm": 0,
    "pts_adjustment": 0.0,
    "cw_index": "0x0",
    "tier": "0xfff",
    "splice_command_length": 20,
    "splice_command_type": 5,
    "descriptor_loop_length": 19,
    "crc": "0xfc303800"
  },
  "command": {
    "name": "Splice Insert",
    "splice_event_id": 8082511,
    "splice_event_cancel_indicator": false,
    "out_of_network_indicator": true,
    "program_splice_flag": true,
    "duration_flag": true,
    "splice_immediate_flag": false,
    "time_specified_flag": true,
    "pts_time": 53429.381267,
    "break_auto_return": false,
    "break_duration": 59.993267,
    "unique_program_id": 0,
    "avail_num": 0,
    "avail_expected": 0
  }
}
['IN', 'COOKHD-6216.dfw.1080', '874cc881-f8c1-4f60-ae1e-990475c13945', '/DA4AAAAAAAAAP/wFAUAe1RPf+//Hp4W2n4AUmNiAAAAAAATAAVTQVBTAQEKQ1VFSQCfNDk0KjrIwQE=', 'PTS-4808644314\n']

{
  "info_section": {
    "table_id": "0xfc",
    "section_syntax_indicator": false,
    "private": false,
    "reserved": "0x3",
    "section_length": 51,
    "protocol_version": 0,
    "encrypted_packet": false,
    "encryption_algorithm": 0,
    "pts_adjustment": 0.0,
    "cw_index": "0x0",
    "tier": "0xfff",
    "splice_command_length": 15,
    "splice_command_type": 5,
    "descriptor_loop_length": 19,
    "crc": "0xfc303300"
  },
  "command": {
    "name": "Splice Insert",
    "splice_event_id": 8082254,
    "splice_event_cancel_indicator": false,
    "out_of_network_indicator": false,
    "program_splice_flag": true,
    "duration_flag": false,
    "splice_immediate_flag": false,
    "time_specified_flag": true,
    "pts_time": 51554.207967,
    "unique_program_id": 0,
    "avail_num": 0,
    "avail_expected": 0
  }
}
['IN', 'COOKHD-6216.dfw.1080', 'dea024ac-1526-4050-bff4-989fcf268722', '/DAzAAAAAAAAAP/wDwUAe1NOf0//FI7uPQAAAAAAEwAFU0FQUwEBCkNVRUkAnzQ5NCM32k/H', 'PTS-4639878717\n']

{
  "info_section": {
    "table_id": "0xfc",
    "section_syntax_indicator": false,
    "private": false,
    "reserved": "0x3",
    "section_length": 56,
    "protocol_version": 0,
    "encrypted_packet": false,
    "encryption_algorithm": 0,
    "pts_adjustment": 0.0,
    "cw_index": "0x0",
    "tier": "0xfff",
    "splice_command_length": 20,
    "splice_command_type": 5,
    "descriptor_loop_length": 19,
    "crc": "0xfc303800"
  },
  "command": {
    "name": "Splice Insert",
    "splice_event_id": 8082251,
    "splice_event_cancel_indicator": false,
    "out_of_network_indicator": true,
    "program_splice_flag": true,
    "duration_flag": true,
    "splice_immediate_flag": false,
    "time_specified_flag": true,
    "pts_time": 51494.181333,
    "break_auto_return": false,
    "break_duration": 59.993267,
    "unique_program_id": 0,
    "avail_num": 0,
    "avail_expected": 0
  }
}
['IN', 'COOKHD-6216.dfw.1080', '612240fe-f5e4-40e8-9001-cd23b5406ee2', '/DA4AAAAAAAAAP/wFAUAe1NLf+//FDx/IH4AUmNiAAAAAAATAAVTQVBTAQEKQ1VFSQCfNDk0Ktdl8go=', 'PTS-4634476320\n']

{
  "info_section": {
    "table_id": "0xfc",
    "section_syntax_indicator": false,
    "private": false,
    "reserved": "0x3",
    "section_length": 51,
    "protocol_version": 0,
    "encrypted_packet": false,
    "encryption_algorithm": 0,
    "pts_adjustment": 0.0,
    "cw_index": "0x0",
    "tier": "0xfff",
    "splice_command_length": 15,
    "splice_command_type": 5,
    "descriptor_loop_length": 19,
    "crc": "0xfc303300"
  },
  "command": {
    "name": "Splice Insert",
    "splice_event_id": 8082071,
    "splice_event_cancel_indicator": false,
    "out_of_network_indicator": false,
    "program_splice_flag": true,
    "duration_flag": false,
    "splice_immediate_flag": false,
    "time_specified_flag": true,
    "pts_time": 49816.4386,
    "unique_program_id": 0,
    "avail_num": 0,
    "avail_expected": 0
  }
}
['IN', 'COOKHD-6216.dfw.1080', '322173ef-e063-4c49-8e54-9004bf4ae5b3', '/DAzAAAAAAAAAP/wDwUAe1KXf0//Czx3sgAAAAAAEwAFU0FQUwEBCkNVRUkAnzQ5NCOjI92d', 'PTS-4483479474\n']

{
  "info_section": {
    "table_id": "0xfc",
    "section_syntax_indicator": false,
    "private": false,
    "reserved": "0x3",
    "section_length": 56,
    "protocol_version": 0,
    "encrypted_packet": false,
    "encryption_algorithm": 0,
    "pts_adjustment": 0.0,
    "cw_index": "0x0",
    "tier": "0xfff",
    "splice_command_length": 20,
    "splice_command_type": 5,
    "descriptor_loop_length": 19,
    "crc": "0xfc303800"
  },
  "command": {
    "name": "Splice Insert",
    "splice_event_id": 8082061,
    "splice_event_cancel_indicator": false,
    "out_of_network_indicator": true,
    "program_splice_flag": true,
    "duration_flag": true,
    "splice_immediate_flag": false,
    "time_specified_flag": true,
    "pts_time": 49756.311867,
    "break_auto_return": false,
    "break_duration": 59.993267,
    "unique_program_id": 0,
    "avail_num": 0,
    "avail_expected": 0
  }
}
['IN', 'COOKHD-6216.dfw.1080', 'c45e0126-dc01-4805-9945-0539b127fabe', '/DA4AAAAAAAAAP/wFAUAe1KNf+//CunlZH4AUmNiAAAAAAATAAVTQVBTAQEKQ1VFSQCfNDk0KqJk4Ag=', 'PTS-4478068068\n']

{
  "info_section": {
    "table_id": "0xfc",
    "section_syntax_indicator": false,
    "private": false,
    "reserved": "0x3",
    "section_length": 51,
    "protocol_version": 0,
    "encrypted_packet": false,
    "encryption_algorithm": 0,
    "pts_adjustment": 0.0,
    "cw_index": "0x0",
    "tier": "0xfff",
    "splice_command_length": 15,
    "splice_command_type": 5,
    "descriptor_loop_length": 19,
    "crc": "0xfc303300"
  },
  "command": {
    "name": "Splice Insert",
    "splice_event_id": 8081794,
    "splice_event_cancel_indicator": false,
    "out_of_network_indicator": false,
    "program_splice_flag": true,
    "duration_flag": false,
    "splice_immediate_flag": false,
    "time_specified_flag": true,
    "pts_time": 47993.984633,
    "unique_program_id": 0,
    "avail_num": 0,
    "avail_expected": 0
  }
}
['IN', 'COOKHD-6216.dfw.1080', '6b24176c-dd62-464f-b1be-3d3e777f2698', '/DAzAAAAAAAAAP/wDwUAe1GCf0//AXW1OQAAAAAAEwAFU0FQUwEBCkNVRUkAnzQ5NCM5lJm6', 'PTS-4319458617\n']

{
  "info_section": {
    "table_id": "0xfc",
    "section_syntax_indicator": false,
    "private": false,
    "reserved": "0x3",
    "section_length": 56,
    "protocol_version": 0,
    "encrypted_packet": false,
    "encryption_algorithm": 0,
    "pts_adjustment": 0.0,
    "cw_index": "0x0",
    "tier": "0xfff",
    "splice_command_length": 20,
    "splice_command_type": 5,
    "descriptor_loop_length": 19,
    "crc": "0xfc303800"
  },
  "command": {
    "name": "Splice Insert",
    "splice_event_id": 8081791,
    "splice_event_cancel_indicator": false,
    "out_of_network_indicator": true,
    "program_splice_flag": true,
    "duration_flag": true,
    "splice_immediate_flag": false,
    "time_specified_flag": true,
    "pts_time": 47933.958,
    "break_auto_return": false,
    "break_duration": 59.993267,
    "unique_program_id": 0,
    "avail_num": 0,
    "avail_expected": 0
  }
}
['IN', 'COOKHD-6216.dfw.1080', 'bb6ea41f-a22c-40eb-a1a3-30ea208c8343', '/DA4AAAAAAAAAP/wFAUAe1F/f+//ASNGHH4AUmNiAAAAAAATAAVTQVBTAQEKQ1VFSQCfNDk0KhVSVCw=', 'PTS-4314056220\n']

{
  "info_section": {
    "table_id": "0xfc",
    "section_syntax_indicator": false,
    "private": false,
    "reserved": "0x3",
    "section_length": 51,
    "protocol_version": 0,
    "encrypted_packet": false,
    "encryption_algorithm": 0,
    "pts_adjustment": 0.0,
    "cw_index": "0x0",
    "tier": "0xfff",
    "splice_command_length": 15,
    "splice_command_type": 5,
    "descriptor_loop_length": 19,
    "crc": "0xfc303300"
  },
  "command": {
    "name": "Splice Insert",
    "splice_event_id": 8081581,
    "splice_event_cancel_indicator": false,
    "out_of_network_indicator": false,
    "program_splice_flag": true,
    "duration_flag": false,
    "splice_immediate_flag": false,
    "time_specified_flag": true,
    "pts_time": 45789.9161,
    "unique_program_id": 0,
    "avail_num": 0,
    "avail_expected": 0
  }
}
['IN', 'COOKHD-6216.dfw.1080', '2307fe50-c073-49cb-a64b-6bbed39095fe', '/DAzAAAAAAAAAP/wDwUAe1Ctf0/+9aLhYQAAAAAAEwAFU0FQUwEBCkNVRUkAnzQ5NCOGiZIo', 'PTS-4121092449\n']

{
  "info_section": {
    "table_id": "0xfc",
    "section_syntax_indicator": false,
    "private": false,
    "reserved": "0x3",
    "section_length": 56,
    "protocol_version": 0,
    "encrypted_packet": false,
    "encryption_algorithm": 0,
    "pts_adjustment": 0.0,
    "cw_index": "0x0",
    "tier": "0xfff",
    "splice_command_length": 20,
    "splice_command_type": 5,
    "descriptor_loop_length": 19,
    "crc": "0xfc303800"
  },
  "command": {
    "name": "Splice Insert",
    "splice_event_id": 8081571,
    "splice_event_cancel_indicator": false,
    "out_of_network_indicator": true,
    "program_splice_flag": true,
    "duration_flag": true,
    "splice_immediate_flag": false,
    "time_specified_flag": true,
    "pts_time": 45729.789367,
    "break_auto_return": false,
    "break_duration": 59.993267,
    "unique_program_id": 0,
    "avail_num": 0,
    "avail_expected": 0
  }
}
['IN', 'COOKHD-6216.dfw.1080', 'e169d021-9610-4e99-8121-19b08a636c6f', '/DA4AAAAAAAAAP/wFAUAe1Cjf+/+9VBPE34AUmNiAAAAAAATAAVTQVBTAQEKQ1VFSQCfNDk0KlA7hRU=', 'PTS-4115681043\n']

{
  "info_section": {
    "table_id": "0xfc",
    "section_syntax_indicator": false,
    "private": false,
    "reserved": "0x3",
    "section_length": 51,
    "protocol_version": 0,
    "encrypted_packet": false,
    "encryption_algorithm": 0,
    "pts_adjustment": 0.0,
    "cw_index": "0x0",
    "tier": "0xfff",
    "splice_command_length": 15,
    "splice_command_type": 5,
    "descriptor_loop_length": 19,
    "crc": "0xfc303300"
  },
  "command": {
    "name": "Splice Insert",
    "splice_event_id": 8081291,
    "splice_event_cancel_indicator": false,
    "out_of_network_indicator": false,
    "program_splice_flag": true,
    "duration_flag": false,
    "splice_immediate_flag": false,
    "time_specified_flag": true,
    "pts_time": 43952.547233,
    "unique_program_id": 0,
    "avail_num": 0,
    "avail_expected": 0
  }
}
['IN', 'COOKHD-6216.dfw.1080', 'b35b8f1b-6c2c-44c5-9b31-1bbdc77fd923', '/DAzAAAAAAAAAP/wDwUAe0+Lf0/+68ejYwAAAAAAEwAFU0FQUwEBCkNVRUkAnzQ5NCNHVsu6', 'PTS-3955729251\n']

{
  "info_section": {
    "table_id": "0xfc",
    "section_syntax_indicator": false,
    "private": false,
    "reserved": "0x3",
    "section_length": 56,
    "protocol_version": 0,
    "encrypted_packet": false,
    "encryption_algorithm": 0,
    "pts_adjustment": 0.0,
    "cw_index": "0x0",
    "tier": "0xfff",
    "splice_command_length": 20,
    "splice_command_type": 5,
    "descriptor_loop_length": 19,
    "crc": "0xfc303800"
  },
  "command": {
    "name": "Splice Insert",
    "splice_event_id": 8081271,
    "splice_event_cancel_indicator": false,
    "out_of_network_indicator": true,
    "program_splice_flag": true,
    "duration_flag": true,
    "splice_immediate_flag": false,
    "time_specified_flag": true,
    "pts_time": 43892.4205,
    "break_auto_return": false,
    "break_duration": 59.993267,
    "unique_program_id": 0,
    "avail_num": 0,
    "avail_expected": 0
  }
}
['IN', 'COOKHD-6216.dfw.1080', '8ab95c4f-f2e4-4dda-acfd-b6abc7ecf205', '/DA4AAAAAAAAAP/wFAUAe093f+/+63URFX4AUmNiAAAAAAATAAVTQVBTAQEKQ1VFSQCfNDk0KoUsElY=', 'PTS-3950317845\n']

{
  "info_section": {
    "table_id": "0xfc",
    "section_syntax_indicator": false,
    "private": false,
    "reserved": "0x3",
    "section_length": 51,
    "protocol_version": 0,
    "encrypted_packet": false,
    "encryption_algorithm": 0,
    "pts_adjustment": 0.0,
    "cw_index": "0x0",
    "tier": "0xfff",
    "splice_command_length": 15,
    "splice_command_type": 5,
    "descriptor_loop_length": 19,
    "crc": "0xfc303300"
  },
  "command": {
    "name": "Splice Insert",
    "splice_event_id": 8081034,
    "splice_event_cancel_indicator": false,
    "out_of_network_indicator": false,
    "program_splice_flag": true,
    "duration_flag": false,
    "splice_immediate_flag": false,
    "time_specified_flag": true,
    "pts_time": 42164.327467,
    "unique_program_id": 0,
    "avail_num": 0,
    "avail_expected": 0
  }
}
['IN', 'COOKHD-6216.dfw.1080', 'ffa681fb-bff1-4004-bde2-070648794107', '/DAzAAAAAAAAAP/wDwUAe06Kf0/+4i/kYAAAAAAAEwAFU0FQUwEBCkNVRUkAnzQ5NCMsoh42', 'PTS-3794789472\n']

{
  "info_section": {
    "table_id": "0xfc",
    "section_syntax_indicator": false,
    "private": false,
    "reserved": "0x3",
    "section_length": 56,
    "protocol_version": 0,
    "encrypted_packet": false,
    "encryption_algorithm": 0,
    "pts_adjustment": 0.0,
    "cw_index": "0x0",
    "tier": "0xfff",
    "splice_command_length": 20,
    "splice_command_type": 5,
    "descriptor_loop_length": 19,
    "crc": "0xfc303800"
  },
  "command": {
    "name": "Splice Insert",
    "splice_event_id": 8081031,
    "splice_event_cancel_indicator": false,
    "out_of_network_indicator": true,
    "program_splice_flag": true,
    "duration_flag": true,
    "splice_immediate_flag": false,
    "time_specified_flag": true,
    "pts_time": 42104.300833,
    "break_auto_return": false,
    "break_duration": 59.993267,
    "unique_program_id": 0,
    "avail_num": 0,
    "avail_expected": 0
  }
}
['IN', 'COOKHD-6216.dfw.1080', 'cfcedef1-917a-4947-91ed-797492399287', '/DA4AAAAAAAAAP/wFAUAe06Hf+/+4d11Q34AUmNiAAAAAAATAAVTQVBTAQEKQ1VFSQCfNDk0KjTZjdg=', 'PTS-3789387075\n']

{
  "info_section": {
    "table_id": "0xfc",
    "section_syntax_indicator": false,
    "private": false,
    "reserved": "0x3",
    "section_length": 51,
    "protocol_version": 0,
    "encrypted_packet": false,
    "encryption_algorithm": 0,
    "pts_adjustment": 0.0,
    "cw_index": "0x0",
    "tier": "0xfff",
    "splice_command_length": 15,
    "splice_command_type": 5,
    "descriptor_loop_length": 19,
    "crc": "0xfc303300"
  },
  "command": {
    "name": "Splice Insert",
    "splice_event_id": 808761,
    "splice_event_cancel_indicator": false,
    "out_of_network_indicator": false,
    "program_splice_flag": true,
    "duration_flag": false,
    "splice_immediate_flag": false,
    "time_specified_flag": true,
    "pts_time": 40382.2138,
    "unique_program_id": 0,
    "avail_num": 0,
    "avail_expected": 0
  }
}
['IN', 'COOKHD-6216.dfw.1080', '4c342ee3-733f-4b22-abf6-ac044fabf6b9', '/DAzAAAAAAAAAP/wDwUADFc5f0/+2KCICgAAAAAAEwAFU0FQUwEBCkNVRUkAnzQ5NCNxrAVZ', 'PTS-3634399242\n']

{
  "info_section": {
    "table_id": "0xfc",
    "section_syntax_indicator": false,
    "private": false,
    "reserved": "0x3",
    "section_length": 56,
    "protocol_version": 0,
    "encrypted_packet": false,
    "encryption_algorithm": 0,
    "pts_adjustment": 0.0,
    "cw_index": "0x0",
    "tier": "0xfff",
    "splice_command_length": 20,
    "splice_command_type": 5,
    "descriptor_loop_length": 19,
    "crc": "0xfc303800"
  },
  "command": {
    "name": "Splice Insert",
    "splice_event_id": 808751,
    "splice_event_cancel_indicator": false,
    "out_of_network_indicator": true,
    "program_splice_flag": true,
    "duration_flag": true,
    "splice_immediate_flag": false,
    "time_specified_flag": true,
    "pts_time": 40322.120433,
    "break_auto_return": false,
    "break_duration": 59.993267,
    "unique_program_id": 0,
    "avail_num": 0,
    "avail_expected": 0
  }
}
['IN', 'COOKHD-6216.dfw.1080', 'fae481f0-f3ca-4243-bc8f-2beb18d4b601', '/DA4AAAAAAAAAP/wFAUADFcvf+/+2E4Bd34AUmNiAAAAAAATAAVTQVBTAQEKQ1VFSQCfNDk0KlSgkgw=', 'PTS-3628990839\n']

{
  "info_section": {
    "table_id": "0xfc",
    "section_syntax_indicator": false,
    "private": false,
    "reserved": "0x3",
    "section_length": 51,
    "protocol_version": 0,
    "encrypted_packet": false,
    "encryption_algorithm": 0,
    "pts_adjustment": 0.0,
    "cw_index": "0x0",
    "tier": "0xfff",
    "splice_command_length": 15,
    "splice_command_type": 5,
    "descriptor_loop_length": 19,
    "crc": "0xfc303300"
  },
  "command": {
    "name": "Splice Insert",
    "splice_event_id": 808474,
    "splice_event_cancel_indicator": false,
    "out_of_network_indicator": false,
    "program_splice_flag": true,
    "duration_flag": false,
    "splice_immediate_flag": false,
    "time_specified_flag": true,
    "pts_time": 38671.871833,
    "unique_program_id": 0,
    "avail_num": 0,
    "avail_expected": 0
  }
}
['IN', 'COOKHD-6216.dfw.1080', 'adebfee1-15f2-486e-bb45-da675b63f8f0', '/DAzAAAAAAAAAP/wDwUADFYaf0/+z3O78QAAAAAAEwAFU0FQUwEBCkNVRUkAnzQ5NCM2p2bW', 'PTS-3480468465\n']

{
  "info_section": {
    "table_id": "0xfc",
    "section_syntax_indicator": false,
    "private": false,
    "reserved": "0x3",
    "section_length": 56,
    "protocol_version": 0,
    "encrypted_packet": false,
    "encryption_algorithm": 0,
    "pts_adjustment": 0.0,
    "cw_index": "0x0",
    "tier": "0xfff",
    "splice_command_length": 20,
    "splice_command_type": 5,
    "descriptor_loop_length": 19,
    "crc": "0xfc303800"
  },
  "command": {
    "name": "Splice Insert",
    "splice_event_id": 808471,
    "splice_event_cancel_indicator": false,
    "out_of_network_indicator": true,
    "program_splice_flag": true,
    "duration_flag": true,
    "splice_immediate_flag": false,
    "time_specified_flag": true,
    "pts_time": 38611.8452,
    "break_auto_return": false,
    "break_duration": 59.993267,
    "unique_program_id": 0,
    "avail_num": 0,
    "avail_expected": 0
  }
}
['IN', 'COOKHD-6216.dfw.1080', '7d6f6cd6-6dfe-46c2-9780-a2312be30fed', '/DA4AAAAAAAAAP/wFAUADFYXf+/+zyFM1H4AUmNiAAAAAAATAAVTQVBTAQEKQ1VFSQCfNDk0KnmstiE=', 'PTS-3475066068\n']

{
  "info_section": {
    "table_id": "0xfc",
    "section_syntax_indicator": false,
    "private": false,
    "reserved": "0x3",
    "section_length": 51,
    "protocol_version": 0,
    "encrypted_packet": false,
    "encryption_algorithm": 0,
    "pts_adjustment": 0.0,
    "cw_index": "0x0",
    "tier": "0xfff",
    "splice_command_length": 15,
    "splice_command_type": 5,
    "descriptor_loop_length": 19,
    "crc": "0xfc303300"
  },
  "command": {
    "name": "Splice Insert",
    "splice_event_id": 808274,
    "splice_event_cancel_indicator": false,
    "out_of_network_indicator": false,
    "program_splice_flag": true,
    "duration_flag": false,
    "splice_immediate_flag": false,
    "time_specified_flag": true,
    "pts_time": 36790.091933,
    "unique_program_id": 0,
    "avail_num": 0,
    "avail_expected": 0
  }
}
['IN', 'COOKHD-6216.dfw.1080', '36f92694-bd96-4ad7-a2ca-c3f6f2161f83', '/DAzAAAAAAAAAP/wDwUADFVSf0/+xVuAsgAAAAAAEwAFU0FQUwEBCkNVRUkAnzQ5NCMsr+sI', 'PTS-3311108274\n']

{
  "info_section": {
    "table_id": "0xfc",
    "section_syntax_indicator": false,
    "private": false,
    "reserved": "0x3",
    "section_length": 56,
    "protocol_version": 0,
    "encrypted_packet": false,
    "encryption_algorithm": 0,
    "pts_adjustment": 0.0,
    "cw_index": "0x0",
    "tier": "0xfff",
    "splice_command_length": 20,
    "splice_command_type": 5,
    "descriptor_loop_length": 19,
    "crc": "0xfc303800"
  },
  "command": {
    "name": "Splice Insert",
    "splice_event_id": 808271,
    "splice_event_cancel_indicator": false,
    "out_of_network_indicator": true,
    "program_splice_flag": true,
    "duration_flag": true,
    "splice_immediate_flag": false,
    "time_specified_flag": true,
    "pts_time": 36730.0653,
    "break_auto_return": false,
    "break_duration": 59.993267,
    "unique_program_id": 0,
    "avail_num": 0,
    "avail_expected": 0
  }
}
['IN', 'COOKHD-6216.dfw.1080', '45b9c83e-a43e-4e36-bb93-1383ecba0291', '/DA4AAAAAAAAAP/wFAUADFVPf+/+xQkRlX4AUmNiAAAAAAATAAVTQVBTAQEKQ1VFSQCfNDk0KjCGhVY=', 'PTS-3305705877\n']

{
  "info_section": {
    "table_id": "0xfc",
    "section_syntax_indicator": false,
    "private": false,
    "reserved": "0x3",
    "section_length": 51,
    "protocol_version": 0,
    "encrypted_packet": false,
    "encryption_algorithm": 0,
    "pts_adjustment": 0.0,
    "cw_index": "0x0",
    "tier": "0xfff",
    "splice_command_length": 15,
    "splice_command_type": 5,
    "descriptor_loop_length": 19,
    "crc": "0xfc303300"
  },
  "command": {
    "name": "Splice Insert",
    "splice_event_id": 84412311,
    "splice_event_cancel_indicator": false,
    "out_of_network_indicator": false,
    "program_splice_flag": true,
    "duration_flag": false,
    "splice_immediate_flag": false,
    "time_specified_flag": true,
    "pts_time": 24181.8296,
    "unique_program_id": 0,
    "avail_num": 0,
    "avail_expected": 0
  }
}
['IN', 'COOKHD-6216.dfw.1080', '8a2f1b29-8437-4a96-bcdd-113942167edf', '/DAzAAAAAAAAAP/wDwUFCAeXf0/+gbiweAAAAAAAEwAFU0FQUwEBCkNVRUkAnzQ5NCPtrWNg', 'PTS-2176364664\n']

{
  "info_section": {
    "table_id": "0xfc",
    "section_syntax_indicator": false,
    "private": false,
    "reserved": "0x3",
    "section_length": 56,
    "protocol_version": 0,
    "encrypted_packet": false,
    "encryption_algorithm": 0,
    "pts_adjustment": 0.0,
    "cw_index": "0x0",
    "tier": "0xfff",
    "splice_command_length": 20,
    "splice_command_type": 5,
    "descriptor_loop_length": 19,
    "crc": "0xfc303800"
  },
  "command": {
    "name": "Splice Insert",
    "splice_event_id": 84412301,
    "splice_event_cancel_indicator": false,
    "out_of_network_indicator": true,
    "program_splice_flag": true,
    "duration_flag": true,
    "splice_immediate_flag": false,
    "time_specified_flag": true,
    "pts_time": 24121.702867,
    "break_auto_return": false,
    "break_duration": 59.993267,
    "unique_program_id": 0,
    "avail_num": 0,
    "avail_expected": 0
  }
}
['IN', 'COOKHD-6216.dfw.1080', 'a09550f8-07cc-4b24-b689-86ebc3c8f872', '/DA4AAAAAAAAAP/wFAUFCAeNf+/+gWYeKn4AUmNiAAAAAAATAAVTQVBTAQEKQ1VFSQCfNDk0Kmddq6I=', 'PTS-2170953258\n']

{
  "info_section": {
    "table_id": "0xfc",
    "section_syntax_indicator": false,
    "private": false,
    "reserved": "0x3",
    "section_length": 51,
    "protocol_version": 0,
    "encrypted_packet": false,
    "encryption_algorithm": 0,
    "pts_adjustment": 0.0,
    "cw_index": "0x0",
    "tier": "0xfff",
    "splice_command_length": 15,
    "splice_command_type": 5,
    "descriptor_loop_length": 19,
    "crc": "0xfc303300"
  },
  "command": {
    "name": "Splice Insert",
    "splice_event_id": 84411981,
    "splice_event_cancel_indicator": false,
    "out_of_network_indicator": false,
    "program_splice_flag": true,
    "duration_flag": false,
    "splice_immediate_flag": false,
    "time_specified_flag": true,
    "pts_time": 22512.395167,
    "unique_program_id": 0,
    "avail_num": 0,
    "avail_expected": 0
  }
}
['IN', 'COOKHD-6216.dfw.1080', '21b4d840-62c2-4bc8-958f-1e8cedf7199d', '/DAzAAAAAAAAAP/wDwUFCAZNf0/+eMQR7QAAAAAAEwAFU0FQUwEBCkNVRUkAnzQ5NCNSLDPE', 'PTS-2026115565\n']

{
  "info_section": {
    "table_id": "0xfc",
    "section_syntax_indicator": false,
    "private": false,
    "reserved": "0x3",
    "section_length": 56,
    "protocol_version": 0,
    "encrypted_packet": false,
    "encryption_algorithm": 0,
    "pts_adjustment": 0.0,
    "cw_index": "0x0",
    "tier": "0xfff",
    "splice_command_length": 20,
    "splice_command_type": 5,
    "descriptor_loop_length": 19,
    "crc": "0xfc303800"
  },
  "command": {
    "name": "Splice Insert",
    "splice_event_id": 84411971,
    "splice_event_cancel_indicator": false,
    "out_of_network_indicator": true,
    "program_splice_flag": true,
    "duration_flag": true,
    "splice_immediate_flag": false,
    "time_specified_flag": true,
    "pts_time": 22452.268433,
    "break_auto_return": false,
    "break_duration": 59.993267,
    "unique_program_id": 0,
    "avail_num": 0,
    "avail_expected": 0
  }
}
['IN', 'COOKHD-6216.dfw.1080', '6548b59c-a5f7-435b-b0c3-2187394bcc98', '/DA4AAAAAAAAAP/wFAUFCAZDf+/+eHF/n34AUmNiAAAAAAATAAVTQVBTAQEKQ1VFSQCfNDk0KileQ24=', 'PTS-2020704159\n']

{
  "info_section": {
    "table_id": "0xfc",
    "section_syntax_indicator": false,
    "private": false,
    "reserved": "0x3",
    "section_length": 51,
    "protocol_version": 0,
    "encrypted_packet": false,
    "encryption_algorithm": 0,
    "pts_adjustment": 0.0,
    "cw_index": "0x0",
    "tier": "0xfff",
    "splice_command_length": 15,
    "splice_command_type": 5,
    "descriptor_loop_length": 19,
    "crc": "0xfc303300"
  },
  "command": {
    "name": "Splice Insert",
    "splice_event_id": 84411681,
    "splice_event_cancel_indicator": false,
    "out_of_network_indicator": false,
    "program_splice_flag": true,
    "duration_flag": false,
    "splice_immediate_flag": false,
    "time_specified_flag": true,
    "pts_time": 20842.9941,
    "unique_program_id": 0,
    "avail_num": 0,
    "avail_expected": 0
  }
}
['IN', 'COOKHD-6216.dfw.1080', 'd2ad2576-24b2-4ca1-92e5-03b2383698e1', '/DAzAAAAAAAAAP/wDwUFCAUhf0/+b89/HQAAAAAAEwAFU0FQUwEBCkNVRUkAnzQ5NCOoZFZe', 'PTS-1875869469\n']

{
  "info_section": {
    "table_id": "0xfc",
    "section_syntax_indicator": false,
    "private": false,
    "reserved": "0x3",
    "section_length": 56,
    "protocol_version": 0,
    "encrypted_packet": false,
    "encryption_algorithm": 0,
    "pts_adjustment": 0.0,
    "cw_index": "0x0",
    "tier": "0xfff",
    "splice_command_length": 20,
    "splice_command_type": 5,
    "descriptor_loop_length": 19,
    "crc": "0xfc303800"
  },
  "command": {
    "name": "Splice Insert",
    "splice_event_id": 84411671,
    "splice_event_cancel_indicator": false,
    "out_of_network_indicator": true,
    "program_splice_flag": true,
    "duration_flag": true,
    "splice_immediate_flag": false,
    "time_specified_flag": true,
    "pts_time": 20782.867367,
    "break_auto_return": false,
    "break_duration": 59.993267,
    "unique_program_id": 0,
    "avail_num": 0,
    "avail_expected": 0
  }
}
['IN', 'COOKHD-6216.dfw.1080', 'a5eba622-6f70-4339-bf26-eadb91a3c318', '/DA4AAAAAAAAAP/wFAUFCAUXf+/+b3zsz34AUmNiAAAAAAATAAVTQVBTAQEKQ1VFSQCfNDk0KrUkccM=', 'PTS-1870458063\n']

{
  "info_section": {
    "table_id": "0xfc",
    "section_syntax_indicator": false,
    "private": false,
    "reserved": "0x3",
    "section_length": 51,
    "protocol_version": 0,
    "encrypted_packet": false,
    "encryption_algorithm": 0,
    "pts_adjustment": 0.0,
    "cw_index": "0x0",
    "tier": "0xfff",
    "splice_command_length": 15,
    "splice_command_type": 5,
    "descriptor_loop_length": 19,
    "crc": "0xfc303300"
  },
  "command": {
    "name": "Splice Insert",
    "splice_event_id": 84411361,
    "splice_event_cancel_indicator": false,
    "out_of_network_indicator": false,
    "program_splice_flag": true,
    "duration_flag": false,
    "splice_immediate_flag": false,
    "time_specified_flag": true,
    "pts_time": 18938.4915,
    "unique_program_id": 0,
    "avail_num": 0,
    "avail_expected": 0
  }
}
['IN', 'COOKHD-6216.dfw.1080', 'b37d8152-a5fc-41f6-8160-0a1c24e1227e', '/DAzAAAAAAAAAP/wDwUFCAPhf0/+ZZgPawAAAAAAEwAFU0FQUwEBCkNVRUkAnzQ5NCMepZY7', 'PTS-1704464235\n']

{
  "info_section": {
    "table_id": "0xfc",
    "section_syntax_indicator": false,
    "private": false,
    "reserved": "0x3",
    "section_length": 56,
    "protocol_version": 0,
    "encrypted_packet": false,
    "encryption_algorithm": 0,
    "pts_adjustment": 0.0,
    "cw_index": "0x0",
    "tier": "0xfff",
    "splice_command_length": 20,
    "splice_command_type": 5,
    "descriptor_loop_length": 19,
    "crc": "0xfc303800"
  },
  "command": {
    "name": "Splice Insert",
    "splice_event_id": 84411351,
    "splice_event_cancel_indicator": false,
    "out_of_network_indicator": true,
    "program_splice_flag": true,
    "duration_flag": true,
    "splice_immediate_flag": false,
    "time_specified_flag": true,
    "pts_time": 18878.364767,
    "break_auto_return": false,
    "break_duration": 59.993267,
    "unique_program_id": 0,
    "avail_num": 0,
    "avail_expected": 0
  }
}
['IN', 'COOKHD-6216.dfw.1080', '681efa7b-5d69-49f7-86fc-03c367f247c6', '/DA4AAAAAAAAAP/wFAUFCAPXf+/+ZUV9HX4AUmNiAAAAAAATAAVTQVBTAQEKQ1VFSQCfNDk0KjbePYg=', 'PTS-1699052829\n']

{
  "info_section": {
    "table_id": "0xfc",
    "section_syntax_indicator": false,
    "private": false,
    "reserved": "0x3",
    "section_length": 51,
    "protocol_version": 0,
    "encrypted_packet": false,
    "encryption_algorithm": 0,
    "pts_adjustment": 0.0,
    "cw_index": "0x0",
    "tier": "0xfff",
    "splice_command_length": 15,
    "splice_command_type": 5,
    "descriptor_loop_length": 19,
    "crc": "0xfc303300"
  },
  "command": {
    "name": "Splice Insert",
    "splice_event_id": 84411131,
    "splice_event_cancel_indicator": false,
    "out_of_network_indicator": false,
    "program_splice_flag": true,
    "duration_flag": false,
    "splice_immediate_flag": false,
    "time_specified_flag": true,
    "pts_time": 16371.760667,
    "unique_program_id": 0,
    "avail_num": 0,
    "avail_expected": 0
  }
}
['IN', 'COOKHD-6216.dfw.1080', '1d46371c-0f51-497f-8a68-8b546ccf9412', '/DAzAAAAAAAAAP/wDwUFCAL7f0/+V9MxHAAAAAAAEwAFU0FQUwEBCkNVRUkAnzQ5NCPMiXx/', 'PTS-1473458460\n']

{
  "info_section": {
    "table_id": "0xfc",
    "section_syntax_indicator": false,
    "private": false,
    "reserved": "0x3",
    "section_length": 56,
    "protocol_version": 0,
    "encrypted_packet": false,
    "encryption_algorithm": 0,
    "pts_adjustment": 0.0,
    "cw_index": "0x0",
    "tier": "0xfff",
    "splice_command_length": 20,
    "splice_command_type": 5,
    "descriptor_loop_length": 19,
    "crc": "0xfc303800"
  },
  "command": {
    "name": "Splice Insert",
    "splice_event_id": 84411121,
    "splice_event_cancel_indicator": false,
    "out_of_network_indicator": true,
    "program_splice_flag": true,
    "duration_flag": true,
    "splice_immediate_flag": false,
    "time_specified_flag": true,
    "pts_time": 16311.633933,
    "break_auto_return": false,
    "break_duration": 59.993267,
    "unique_program_id": 0,
    "avail_num": 0,
    "avail_expected": 0
  }
}
['IN', 'COOKHD-6216.dfw.1080', 'b48f79cb-2556-407a-b1f3-f5241a1a8d36', '/DA4AAAAAAAAAP/wFAUFCALxf+/+V4Cezn4AUmNiAAAAAAATAAVTQVBTAQEKQ1VFSQCfNDk0Kn0U9Kc=', 'PTS-1468047054\n']

{
  "info_section": {
    "table_id": "0xfc",
    "section_syntax_indicator": false,
    "private": false,
    "reserved": "0x3",
    "section_length": 51,
    "protocol_version": 0,
    "encrypted_packet": false,
    "encryption_algorithm": 0,
    "pts_adjustment": 0.0,
    "cw_index": "0x0",
    "tier": "0xfff",
    "splice_command_length": 15,
    "splice_command_type": 5,
    "descriptor_loop_length": 19,
    "crc": "0xfc303300"
  },
  "command": {
    "name": "Splice Insert",
    "splice_event_id": 84411031,
    "splice_event_cancel_indicator": false,
    "out_of_network_indicator": false,
    "program_splice_flag": true,
    "duration_flag": false,
    "splice_immediate_flag": false,
    "time_specified_flag": true,
    "pts_time": 15125.615767,
    "unique_program_id": 0,
    "avail_num": 0,
    "avail_expected": 0
  }
}
['IN', 'COOKHD-6216.dfw.1080', 'ba4af48e-df44-43e3-a1bc-9bbb64092ebd', '/DAzAAAAAAAAAP/wDwUFCAKXf0/+USPfSwAAAAAAEwAFU0FQUwEBCkNVRUkAnzQ5NCPBhRHZ', 'PTS-1361305419\n']

{
  "info_section": {
    "table_id": "0xfc",
    "section_syntax_indicator": false,
    "private": false,
    "reserved": "0x3",
    "section_length": 56,
    "protocol_version": 0,
    "encrypted_packet": false,
    "encryption_algorithm": 0,
    "pts_adjustment": 0.0,
    "cw_index": "0x0",
    "tier": "0xfff",
    "splice_command_length": 20,
    "splice_command_type": 5,
    "descriptor_loop_length": 19,
    "crc": "0xfc303800"
  },
  "command": {
    "name": "Splice Insert",
    "splice_event_id": 84411011,
    "splice_event_cancel_indicator": false,
    "out_of_network_indicator": true,
    "program_splice_flag": true,
    "duration_flag": true,
    "splice_immediate_flag": false,
    "time_specified_flag": true,
    "pts_time": 15065.455667,
    "break_auto_return": false,
    "break_duration": 59.993267,
    "unique_program_id": 0,
    "avail_num": 0,
    "avail_expected": 0
  }
}
['IN', 'COOKHD-6216.dfw.1080', '89f8c5f9-f695-4d38-aeed-386e918b9933', '/DA4AAAAAAAAAP/wFAUFCAKDf+/+UNFBQn4AUmNiAAAAAAATAAVTQVBTAQEKQ1VFSQCfNDk0Ki7IoKo=', 'PTS-1355891010\n']

{
  "info_section": {
    "table_id": "0xfc",
    "section_syntax_indicator": false,
    "private": false,
    "reserved": "0x3",
    "section_length": 51,
    "protocol_version": 0,
    "encrypted_packet": false,
    "encryption_algorithm": 0,
    "pts_adjustment": 0.0,
    "cw_index": "0x0",
    "tier": "0xfff",
    "splice_command_length": 15,
    "splice_command_type": 5,
    "descriptor_loop_length": 19,
    "crc": "0xfc303300"
  },
  "command": {
    "name": "Splice Insert",
    "splice_event_id": 84410861,
    "splice_event_cancel_indicator": false,
    "out_of_network_indicator": false,
    "program_splice_flag": true,
    "duration_flag": false,
    "splice_immediate_flag": false,
    "time_specified_flag": true,
    "pts_time": 13387.112333,
    "unique_program_id": 0,
    "avail_num": 0,
    "avail_expected": 0
  }
}
['IN', 'COOKHD-6216.dfw.1080', 'daf3b2f2-4534-4b38-bb01-078ad396ff31', '/DAzAAAAAAAAAP/wDwUFCAHtf0/+R9BmrgAAAAAAEwAFU0FQUwEBCkNVRUkAnzQ5NCMcoVSJ', 'PTS-1204840110\n']

{
  "info_section": {
    "table_id": "0xfc",
    "section_syntax_indicator": false,
    "private": false,
    "reserved": "0x3",
    "section_length": 56,
    "protocol_version": 0,
    "encrypted_packet": false,
    "encryption_algorithm": 0,
    "pts_adjustment": 0.0,
    "cw_index": "0x0",
    "tier": "0xfff",
    "splice_command_length": 20,
    "splice_command_type": 5,
    "descriptor_loop_length": 19,
    "crc": "0xfc303800"
  },
  "command": {
    "name": "Splice Insert",
    "splice_event_id": 84410841,
    "splice_event_cancel_indicator": false,
    "out_of_network_indicator": true,
    "program_splice_flag": true,
    "duration_flag": true,
    "splice_immediate_flag": false,
    "time_specified_flag": true,
    "pts_time": 13326.952233,
    "break_auto_return": false,
    "break_duration": 59.993267,
    "unique_program_id": 0,
    "avail_num": 0,
    "avail_expected": 0
  }
}
['IN', 'COOKHD-6216.dfw.1080', 'f1dbba2a-6d6b-44f7-919b-a2c7fc2b1d35', '/DA4AAAAAAAAAP/wFAUFCAHZf+/+R33IpX4AUmNiAAAAAAATAAVTQVBTAQEKQ1VFSQCfNDk0KqCPlSg=', 'PTS-1199425701\n']

{
  "info_section": {
    "table_id": "0xfc",
    "section_syntax_indicator": false,
    "private": false,
    "reserved": "0x3",
    "section_length": 51,
    "protocol_version": 0,
    "encrypted_packet": false,
    "encryption_algorithm": 0,
    "pts_adjustment": 0.0,
    "cw_index": "0x0",
    "tier": "0xfff",
    "splice_command_length": 15,
    "splice_command_type": 5,
    "descriptor_loop_length": 19,
    "crc": "0xfc303300"
  },
  "command": {
    "name": "Splice Insert",
    "splice_event_id": 84410541,
    "splice_event_cancel_indicator": false,
    "out_of_network_indicator": false,
    "program_splice_flag": true,
    "duration_flag": false,
    "splice_immediate_flag": false,
    "time_specified_flag": true,
    "pts_time": 11571.3317,
    "unique_program_id": 0,
    "avail_num": 0,
    "avail_expected": 0
  }
}
['IN', 'COOKHD-6216.dfw.1080', '3c18ab47-d2f4-4d56-a82c-70a0fb2c9e2e', '/DAzAAAAAAAAAP/wDwUFCACtf0/+PhLOTQAAAAAAEwAFU0FQUwEBCkNVRUkAnzQ5NCPEo7t0', 'PTS-1041419853\n']

{
  "info_section": {
    "table_id": "0xfc",
    "section_syntax_indicator": false,
    "private": false,
    "reserved": "0x3",
    "section_length": 56,
    "protocol_version": 0,
    "encrypted_packet": false,
    "encryption_algorithm": 0,
    "pts_adjustment": 0.0,
    "cw_index": "0x0",
    "tier": "0xfff",
    "splice_command_length": 20,
    "splice_command_type": 5,
    "descriptor_loop_length": 19,
    "crc": "0xfc303800"
  },
  "command": {
    "name": "Splice Insert",
    "splice_event_id": 84410521,
    "splice_event_cancel_indicator": false,
    "out_of_network_indicator": true,
    "program_splice_flag": true,
    "duration_flag": true,
    "splice_immediate_flag": false,
    "time_specified_flag": true,
    "pts_time": 11511.1716,
    "break_auto_return": false,
    "break_duration": 59.993267,
    "unique_program_id": 0,
    "avail_num": 0,
    "avail_expected": 0
  }
}
['IN', 'COOKHD-6216.dfw.1080', '0335a402-e9a6-4126-b8e1-f62c7689682a', '/DA4AAAAAAAAAP/wFAUFCACZf+/+PcAwRH4AUmNiAAAAAAATAAVTQVBTAQEKQ1VFSQCfNDk0KiSpcrw=', 'PTS-1036005444\n']

{
  "info_section": {
    "table_id": "0xfc",
    "section_syntax_indicator": false,
    "private": false,
    "reserved": "0x3",
    "section_length": 51,
    "protocol_version": 0,
    "encrypted_packet": false,
    "encryption_algorithm": 0,
    "pts_adjustment": 0.0,
    "cw_index": "0x0",
    "tier": "0xfff",
    "splice_command_length": 15,
    "splice_command_type": 5,
    "descriptor_loop_length": 19,
    "crc": "0xfc303300"
  },
  "command": {
    "name": "Splice Insert",
    "splice_event_id": 84410231,
    "splice_event_cancel_indicator": false,
    "out_of_network_indicator": false,
    "program_splice_flag": true,
    "duration_flag": false,
    "splice_immediate_flag": false,
    "time_specified_flag": true,
    "pts_time": 9777.206033,
    "unique_program_id": 0,
    "avail_num": 0,
    "avail_expected": 0
  }
}
['IN', 'COOKHD-6216.dfw.1080', '412d8af2-e290-425f-b9e6-dba7dc82f77b', '/DAzAAAAAAAAAP/wDwUFB/93f0/+NHLy/wAAAAAAEwAFU0FQUwEBCkNVRUkAnzQ5NCOg/MyL', 'PTS-879948543\n']

{
  "info_section": {
    "table_id": "0xfc",
    "section_syntax_indicator": false,
    "private": false,
    "reserved": "0x3",
    "section_length": 56,
    "protocol_version": 0,
    "encrypted_packet": false,
    "encryption_algorithm": 0,
    "pts_adjustment": 0.0,
    "cw_index": "0x0",
    "tier": "0xfff",
    "splice_command_length": 20,
    "splice_command_type": 5,
    "descriptor_loop_length": 19,
    "crc": "0xfc303800"
  },
  "command": {
    "name": "Splice Insert",
    "splice_event_id": 84410221,
    "splice_event_cancel_indicator": false,
    "out_of_network_indicator": true,
    "program_splice_flag": true,
    "duration_flag": true,
    "splice_immediate_flag": false,
    "time_specified_flag": true,
    "pts_time": 9717.112667,
    "break_auto_return": false,
    "break_duration": 59.993267,
    "unique_program_id": 0,
    "avail_num": 0,
    "avail_expected": 0
  }
}
['IN', 'COOKHD-6216.dfw.1080', 'd78f9824-9320-4436-b154-d124cea866df', '/DA4AAAAAAAAAP/wFAUFB/9tf+/+NCBsbH4AUmNiAAAAAAATAAVTQVBTAQEKQ1VFSQCfNDk0KsOFGBM=', 'PTS-874540140\n']

{
  "info_section": {
    "table_id": "0xfc",
    "section_syntax_indicator": false,
    "private": false,
    "reserved": "0x3",
    "section_length": 51,
    "protocol_version": 0,
    "encrypted_packet": false,
    "encryption_algorithm": 0,
    "pts_adjustment": 0.0,
    "cw_index": "0x0",
    "tier": "0xfff",
    "splice_command_length": 15,
    "splice_command_type": 5,
    "descriptor_loop_length": 19,
    "crc": "0xfc303300"
  },
  "command": {
    "name": "Splice Insert",
    "splice_event_id": 8449911,
    "splice_event_cancel_indicator": false,
    "out_of_network_indicator": false,
    "program_splice_flag": true,
    "duration_flag": false,
    "splice_immediate_flag": false,
    "time_specified_flag": true,
    "pts_time": 8122.853333,
    "unique_program_id": 0,
    "avail_num": 0,
    "avail_expected": 0
  }
}
['IN', 'COOKHD-6216.dfw.1080', '44087e31-b8ae-4d14-af87-494443fa27e8', '/DAzAAAAAAAAAP/wDwUAgO93f0/+K5MKoAAAAAAAEwAFU0FQUwEBCkNVRUkAnzQ5NCMGVesP', 'PTS-731056800\n']

{
  "info_section": {
    "table_id": "0xfc",
    "section_syntax_indicator": false,
    "private": false,
    "reserved": "0x3",
    "section_length": 56,
    "protocol_version": 0,
    "encrypted_packet": false,
    "encryption_algorithm": 0,
    "pts_adjustment": 0.0,
    "cw_index": "0x0",
    "tier": "0xfff",
    "splice_command_length": 20,
    "splice_command_type": 5,
    "descriptor_loop_length": 19,
    "crc": "0xfc303800"
  },
  "command": {
    "name": "Splice Insert",
    "splice_event_id": 8449891,
    "splice_event_cancel_indicator": false,
    "out_of_network_indicator": true,
    "program_splice_flag": true,
    "duration_flag": true,
    "splice_immediate_flag": false,
    "time_specified_flag": true,
    "pts_time": 8062.693233,
    "break_auto_return": false,
    "break_duration": 59.993267,
    "unique_program_id": 0,
    "avail_num": 0,
    "avail_expected": 0
  }
}
['IN', 'COOKHD-6216.dfw.1080', 'a76fd708-1887-4099-842f-244a2b06e0f3', '/DA4AAAAAAAAAP/wFAUAgO9jf+/+K0Bsl34AUmNiAAAAAAATAAVTQVBTAQEKQ1VFSQCfNDk0KjE+t60=', 'PTS-725642391\n']

{
  "info_section": {
    "table_id": "0xfc",
    "section_syntax_indicator": false,
    "private": false,
    "reserved": "0x3",
    "section_length": 51,
    "protocol_version": 0,
    "encrypted_packet": false,
    "encryption_algorithm": 0,
    "pts_adjustment": 0.0,
    "cw_index": "0x0",
    "tier": "0xfff",
    "splice_command_length": 15,
    "splice_command_type": 5,
    "descriptor_loop_length": 19,
    "crc": "0xfc303300"
  },
  "command": {
    "name": "Splice Insert",
    "splice_event_id": 8449581,
    "splice_event_cancel_indicator": false,
    "out_of_network_indicator": false,
    "program_splice_flag": true,
    "duration_flag": false,
    "splice_immediate_flag": false,
    "time_specified_flag": true,
    "pts_time": 6423.2888,
    "unique_program_id": 0,
    "avail_num": 0,
    "avail_expected": 0
  }
}
['IN', 'COOKHD-6216.dfw.1080', '66841ff4-3795-464d-8864-f78f2d949b35', '/DAzAAAAAAAAAP/wDwUAgO4tf0/+InULeAAAAAAAEwAFU0FQUwEBCkNVRUkAnzQ5NCONN1YV', 'PTS-578095992\n']

{
  "info_section": {
    "table_id": "0xfc",
    "section_syntax_indicator": false,
    "private": false,
    "reserved": "0x3",
    "section_length": 56,
    "protocol_version": 0,
    "encrypted_packet": false,
    "encryption_algorithm": 0,
    "pts_adjustment": 0.0,
    "cw_index": "0x0",
    "tier": "0xfff",
    "splice_command_length": 20,
    "splice_command_type": 5,
    "descriptor_loop_length": 19,
    "crc": "0xfc303800"
  },
  "command": {
    "name": "Splice Insert",
    "splice_event_id": 8449571,
    "splice_event_cancel_indicator": false,
    "out_of_network_indicator": true,
    "program_splice_flag": true,
    "duration_flag": true,
    "splice_immediate_flag": false,
    "time_specified_flag": true,
    "pts_time": 6363.195433,
    "break_auto_return": false,
    "break_duration": 59.993267,
    "unique_program_id": 0,
    "avail_num": 0,
    "avail_expected": 0
  }
}
['IN', 'COOKHD-6216.dfw.1080', '8fcc897b-8b48-4264-b781-6c889cc94938', '/DA4AAAAAAAAAP/wFAUAgO4jf+/+IiKE5X4AUmNiAAAAAAATAAVTQVBTAQEKQ1VFSQCfNDk0Kk28Jj4=', 'PTS-572687589\n']

{
  "info_section": {
    "table_id": "0xfc",
    "section_syntax_indicator": false,
    "private": false,
    "reserved": "0x3",
    "section_length": 51,
    "protocol_version": 0,
    "encrypted_packet": false,
    "encryption_algorithm": 0,
    "pts_adjustment": 0.0,
    "cw_index": "0x0",
    "tier": "0xfff",
    "splice_command_length": 15,
    "splice_command_type": 5,
    "descriptor_loop_length": 19,
    "crc": "0xfc303300"
  },
  "command": {
    "name": "Splice Insert",
    "splice_event_id": 8449271,
    "splice_event_cancel_indicator": false,
    "out_of_network_indicator": false,
    "program_splice_flag": true,
    "duration_flag": false,
    "splice_immediate_flag": false,
    "time_specified_flag": true,
    "pts_time": 4533.9013,
    "unique_program_id": 0,
    "avail_num": 0,
    "avail_expected": 0
  }
}
['IN', 'COOKHD-6216.dfw.1080', 'd0e98f57-d7b6-4b53-ae6e-7779ce5dc0cc', '/DAzAAAAAAAAAP/wDwUAgOz3f0/+GFJdrQAAAAAAEwAFU0FQUwEBCkNVRUkAnzQ5NCOfKZsv', 'PTS-408051117\n']

{
  "info_section": {
    "table_id": "0xfc",
    "section_syntax_indicator": false,
    "private": false,
    "reserved": "0x3",
    "section_length": 56,
    "protocol_version": 0,
    "encrypted_packet": false,
    "encryption_algorithm": 0,
    "pts_adjustment": 0.0,
    "cw_index": "0x0",
    "tier": "0xfff",
    "splice_command_length": 20,
    "splice_command_type": 5,
    "descriptor_loop_length": 19,
    "crc": "0xfc303800"
  },
  "command": {
    "name": "Splice Insert",
    "splice_event_id": 8449251,
    "splice_event_cancel_indicator": false,
    "out_of_network_indicator": true,
    "program_splice_flag": true,
    "duration_flag": true,
    "splice_immediate_flag": false,
    "time_specified_flag": true,
    "pts_time": 4473.774567,
    "break_auto_return": false,
    "break_duration": 59.993267,
    "unique_program_id": 0,
    "avail_num": 0,
    "avail_expected": 0
  }
}
['IN', 'COOKHD-6216.dfw.1080', 'a2f33d91-0673-4fbb-829a-76cd49d41b47', '/DA4AAAAAAAAAP/wFAUAgOzjf+/+F//LX34AUmNiAAAAAAATAAVTQVBTAQEKQ1VFSQCfNDk0KhwSwE8=', 'PTS-402639711\n']

{
  "info_section": {
    "table_id": "0xfc",
    "section_syntax_indicator": false,
    "private": false,
    "reserved": "0x3",
    "section_length": 51,
    "protocol_version": 0,
    "encrypted_packet": false,
    "encryption_algorithm": 0,
    "pts_adjustment": 0.0,
    "cw_index": "0x0",
    "tier": "0xfff",
    "splice_command_length": 15,
    "splice_command_type": 5,
    "descriptor_loop_length": 19,
    "crc": "0xfc303300"
  },
  "command": {
    "name": "Splice Insert",
    "splice_event_id": 8449031,
    "splice_event_cancel_indicator": false,
    "out_of_network_indicator": false,
    "program_splice_flag": true,
    "duration_flag": false,
    "splice_immediate_flag": false,
    "time_specified_flag": true,
    "pts_time": 1967.2372,
    "unique_program_id": 0,
    "avail_num": 0,
    "avail_expected": 0
  }
}
['IN', 'COOKHD-6216.dfw.1080', 'be55dbd2-1593-4835-878d-ae3cbf5d5150', '/DAzAAAAAAAAAP/wDwUAgOwHf0/+Co2W1AAAAAAAEwAFU0FQUwEBCkNVRUkAnzQ5NCOWapFo', 'PTS-177051348\n']

{
  "info_section": {
    "table_id": "0xfc",
    "section_syntax_indicator": false,
    "private": false,
    "reserved": "0x3",
    "section_length": 56,
    "protocol_version": 0,
    "encrypted_packet": false,
    "encryption_algorithm": 0,
    "pts_adjustment": 0.0,
    "cw_index": "0x0",
    "tier": "0xfff",
    "splice_command_length": 20,
    "splice_command_type": 5,
    "descriptor_loop_length": 19,
    "crc": "0xfc303800"
  },
  "command": {
    "name": "Splice Insert",
    "splice_event_id": 8449021,
    "splice_event_cancel_indicator": false,
    "out_of_network_indicator": true,
    "program_splice_flag": true,
    "duration_flag": true,
    "splice_immediate_flag": false,
    "time_specified_flag": true,
    "pts_time": 1907.110467,
    "break_auto_return": false,
    "break_duration": 59.993267,
    "unique_program_id": 0,
    "avail_num": 0,
    "avail_expected": 0
  }
}
['IN', 'COOKHD-6216.dfw.1080', 'a7f8c923-ce62-4a15-844d-01724c58272c', '/DA4AAAAAAAAAP/wFAUAgOv9f+/+CjsEhn4AUmNiAAAAAAATAAVTQVBTAQEKQ1VFSQCfNDk0KgsLJqU=', 'PTS-171639942\n']

{
  "info_section": {
    "table_id": "0xfc",
    "section_syntax_indicator": false,
    "private": false,
    "reserved": "0x3",
    "section_length": 51,
    "protocol_version": 0,
    "encrypted_packet": false,
    "encryption_algorithm": 0,
    "pts_adjustment": 0.0,
    "cw_index": "0x0",
    "tier": "0xfff",
    "splice_command_length": 15,
    "splice_command_type": 5,
    "descriptor_loop_length": 19,
    "crc": "0xfc303300"
  },
  "command": {
    "name": "Splice Insert",
    "splice_event_id": 8448931,
    "splice_event_cancel_indicator": false,
    "out_of_network_indicator": false,
    "program_splice_flag": true,
    "duration_flag": false,
    "splice_immediate_flag": false,
    "time_specified_flag": true,
    "pts_time": 721.0923,
    "unique_program_id": 0,
    "avail_num": 0,
    "avail_expected": 0
  }
}
['IN', 'COOKHD-6216.dfw.1080', 'a5e86d7b-43f6-48c3-a41d-b217d3975b86', '/DAzAAAAAAAAAP/wDwUAgOujf0/+A95FAwAAAAAAEwAFU0FQUwEBCkNVRUkAnzQ5NCP9d9+Z', 'PTS-64898307\n']

{
  "info_section": {
    "table_id": "0xfc",
    "section_syntax_indicator": false,
    "private": false,
    "reserved": "0x3",
    "section_length": 56,
    "protocol_version": 0,
    "encrypted_packet": false,
    "encryption_algorithm": 0,
    "pts_adjustment": 0.0,
    "cw_index": "0x0",
    "tier": "0xfff",
    "splice_command_length": 20,
    "splice_command_type": 5,
    "descriptor_loop_length": 19,
    "crc": "0xfc303800"
  },
  "command": {
    "name": "Splice Insert",
    "splice_event_id": 8448911,
    "splice_event_cancel_indicator": false,
    "out_of_network_indicator": true,
    "program_splice_flag": true,
    "duration_flag": true,
    "splice_immediate_flag": false,
    "time_specified_flag": true,
    "pts_time": 660.9322,
    "break_auto_return": false,
    "break_duration": 59.993267,
    "unique_program_id": 0,
    "avail_num": 0,
    "avail_expected": 0
  }
}
['IN', 'COOKHD-6216.dfw.1080', '5341d4da-c1a8-4f79-b69e-011559d25aa2', '/DA4AAAAAAAAAP/wFAUAgOuPf+/+A4um+n4AUmNiAAAAAAATAAVTQVBTAQEKQ1VFSQCfNDk0Khs28bQ=', 'PTS-59483898\n']

{
  "info_section": {
    "table_id": "0xfc",
    "section_syntax_indicator": false,
    "private": false,
    "reserved": "0x3",
    "section_length": 51,
    "protocol_version": 0,
    "encrypted_packet": false,
    "encryption_algorithm": 0,
    "pts_adjustment": 0.0,
    "cw_index": "0x0",
    "tier": "0xfff",
    "splice_command_length": 15,
    "splice_command_type": 5,
    "descriptor_loop_length": 19,
    "crc": "0xfc303300"
  },
  "command": {
    "name": "Splice Insert",
    "splice_event_id": 8448751,
    "splice_event_cancel_indicator": false,
    "out_of_network_indicator": false,
    "program_splice_flag": true,
    "duration_flag": false,
    "splice_immediate_flag": false,
    "time_specified_flag": true,
    "pts_time": 94392.172456,
    "unique_program_id": 0,
    "avail_num": 0,
    "avail_expected": 0
  }
}
['IN', 'COOKHD-6216.dfw.1080', 'b11ef8f8-3cf6-4272-aef1-7845ebb93957', '/DAzAAAAAAAAAP/wDwUAgOrvf0//+lvsIQAAAAAAEwAFU0FQUwEBCkNVRUkAnzQ5NCPSPqqe', 'PTS-8495295521\n']

{
  "info_section": {
    "table_id": "0xfc",
    "section_syntax_indicator": false,
    "private": false,
    "reserved": "0x3",
    "section_length": 56,
    "protocol_version": 0,
    "encrypted_packet": false,
    "encryption_algorithm": 0,
    "pts_adjustment": 0.0,
    "cw_index": "0x0",
    "tier": "0xfff",
    "splice_command_length": 20,
    "splice_command_type": 5,
    "descriptor_loop_length": 19,
    "crc": "0xfc303800"
  },
  "command": {
    "name": "Splice Insert",
    "splice_event_id": 8448741,
    "splice_event_cancel_indicator": false,
    "out_of_network_indicator": true,
    "program_splice_flag": true,
    "duration_flag": true,
    "splice_immediate_flag": false,
    "time_specified_flag": true,
    "pts_time": 94332.079089,
    "break_auto_return": false,
    "break_duration": 59.993267,
    "unique_program_id": 0,
    "avail_num": 0,
    "avail_expected": 0
  }
}
['IN', 'COOKHD-6216.dfw.1080', '1804679f-11c1-40bb-97b3-06c32725acb4', '/DA4AAAAAAAAAP/wFAUAgOrlf+//+glljn4AUmNiAAAAAAATAAVTQVBTAQEKQ1VFSQCfNDk0KlBZoxs=', 'PTS-8489887118\n']

{
  "info_section": {
    "table_id": "0xfc",
    "section_syntax_indicator": false,
    "private": false,
    "reserved": "0x3",
    "section_length": 51,
    "protocol_version": 0,
    "encrypted_packet": false,
    "encryption_algorithm": 0,
    "pts_adjustment": 0.0,
    "cw_index": "0x0",
    "tier": "0xfff",
    "splice_command_length": 15,
    "splice_command_type": 5,
    "descriptor_loop_length": 19,
    "crc": "0xfc303300"
  },
  "command": {
    "name": "Splice Insert",
    "splice_event_id": 8448451,
    "splice_event_cancel_indicator": false,
    "out_of_network_indicator": false,
    "program_splice_flag": true,
    "duration_flag": false,
    "splice_immediate_flag": false,
    "time_specified_flag": true,
    "pts_time": 92606.521922,
    "unique_program_id": 0,
    "avail_num": 0,
    "avail_expected": 0
  }
}
['IN', 'COOKHD-6216.dfw.1080', 'b6f9fa69-d562-408f-be1e-fc44d7d0fb82', '/DAzAAAAAAAAAP/wDwUAgOnDf0//8Me0XQAAAAAAEwAFU0FQUwEBCkNVRUkAnzQ5NCPQKO01', 'PTS-8334586973\n']

{
  "info_section": {
    "table_id": "0xfc",
    "section_syntax_indicator": false,
    "private": false,
    "reserved": "0x3",
    "section_length": 56,
    "protocol_version": 0,
    "encrypted_packet": false,
    "encryption_algorithm": 0,
    "pts_adjustment": 0.0,
    "cw_index": "0x0",
    "tier": "0xfff",
    "splice_command_length": 20,
    "splice_command_type": 5,
    "descriptor_loop_length": 19,
    "crc": "0xfc303800"
  },
  "command": {
    "name": "Splice Insert",
    "splice_event_id": 8448431,
    "splice_event_cancel_indicator": false,
    "out_of_network_indicator": true,
    "program_splice_flag": true,
    "duration_flag": true,
    "splice_immediate_flag": false,
    "time_specified_flag": true,
    "pts_time": 92546.361822,
    "break_auto_return": false,
    "break_duration": 59.993267,
    "unique_program_id": 0,
    "avail_num": 0,
    "avail_expected": 0
  }
}
['IN', 'COOKHD-6216.dfw.1080', '6973613b-0307-4637-9433-544b2406b229', '/DA4AAAAAAAAAP/wFAUAgOmvf+//8HUWVH4AUmNiAAAAAAATAAVTQVBTAQEKQ1VFSQCfNDk0KptUum8=', 'PTS-8329172564\n']

{
  "info_section": {
    "table_id": "0xfc",
    "section_syntax_indicator": false,
    "private": false,
    "reserved": "0x3",
    "section_length": 51,
    "protocol_version": 0,
    "encrypted_packet": false,
    "encryption_algorithm": 0,
    "pts_adjustment": 0.0,
    "cw_index": "0x0",
    "tier": "0xfff",
    "splice_command_length": 15,
    "splice_command_type": 5,
    "descriptor_loop_length": 19,
    "crc": "0xfc303300"
  },
  "command": {
    "name": "Splice Insert",
    "splice_event_id": 8448131,
    "splice_event_cancel_indicator": false,
    "out_of_network_indicator": false,
    "program_splice_flag": true,
    "duration_flag": false,
    "splice_immediate_flag": false,
    "time_specified_flag": true,
    "pts_time": 90964.414789,
    "unique_program_id": 0,
    "avail_num": 0,
    "avail_expected": 0
  }
}
['IN', 'COOKHD-6216.dfw.1080', 'b2a42a93-1c23-467b-bbab-6734263402e9', '/DAzAAAAAAAAAP/wDwUAgOiDf0//5/idEwAAAAAAEwAFU0FQUwEBCkNVRUkAnzQ5NCNvKY4I', 'PTS-8186797331\n']

{
  "info_section": {
    "table_id": "0xfc",
    "section_syntax_indicator": false,
    "private": false,
    "reserved": "0x3",
    "section_length": 56,
    "protocol_version": 0,
    "encrypted_packet": false,
    "encryption_algorithm": 0,
    "pts_adjustment": 0.0,
    "cw_index": "0x0",
    "tier": "0xfff",
    "splice_command_length": 20,
    "splice_command_type": 5,
    "descriptor_loop_length": 19,
    "crc": "0xfc303800"
  },
  "command": {
    "name": "Splice Insert",
    "splice_event_id": 8448111,
    "splice_event_cancel_indicator": false,
    "out_of_network_indicator": true,
    "program_splice_flag": true,
    "duration_flag": true,
    "splice_immediate_flag": false,
    "time_specified_flag": true,
    "pts_time": 90904.288056,
    "break_auto_return": false,
    "break_duration": 59.993267,
    "unique_program_id": 0,
    "avail_num": 0,
    "avail_expected": 0
  }
}
['IN', 'COOKHD-6216.dfw.1080', '8b295433-372d-4f02-bf7b-db3f4d2246a9', '/DA4AAAAAAAAAP/wFAUAgOhvf+//56YKxX4AUmNiAAAAAAATAAVTQVBTAQEKQ1VFSQCfNDk0KjO0hSg=', 'PTS-8181385925\n']

{
  "info_section": {
    "table_id": "0xfc",
    "section_syntax_indicator": false,
    "private": false,
    "reserved": "0x3",
    "section_length": 51,
    "protocol_version": 0,
    "encrypted_packet": false,
    "encryption_algorithm": 0,
    "pts_adjustment": 0.0,
    "cw_index": "0x0",
    "tier": "0xfff",
    "splice_command_length": 15,
    "splice_command_type": 5,
    "descriptor_loop_length": 19,
    "crc": "0xfc303300"
  },
  "command": {
    "name": "Splice Insert",
    "splice_event_id": 8447761,
    "splice_event_cancel_indicator": false,
    "out_of_network_indicator": false,
    "program_splice_flag": true,
    "duration_flag": false,
    "splice_immediate_flag": false,
    "time_specified_flag": true,
    "pts_time": 89231.850622,
    "unique_program_id": 0,
    "avail_num": 0,
    "avail_expected": 0
  }
}
['IN', 'COOKHD-6216.dfw.1080', '623bfea5-bc68-4e72-b55f-36361d637f02', '/DAzAAAAAAAAAP/wDwUAgOcRf0//3q1MfAAAAAAAEwAFU0FQUwEBCkNVRUkAnzQ5NCNPWglh', 'PTS-8030866556\n']

{
  "info_section": {
    "table_id": "0xfc",
    "section_syntax_indicator": false,
    "private": false,
    "reserved": "0x3",
    "section_length": 56,
    "protocol_version": 0,
    "encrypted_packet": false,
    "encryption_algorithm": 0,
    "pts_adjustment": 0.0,
    "cw_index": "0x0",
    "tier": "0xfff",
    "splice_command_length": 20,
    "splice_command_type": 5,
    "descriptor_loop_length": 19,
    "crc": "0xfc303800"
  },
  "command": {
    "name": "Splice Insert",
    "splice_event_id": 8447741,
    "splice_event_cancel_indicator": false,
    "out_of_network_indicator": true,
    "program_splice_flag": true,
    "duration_flag": true,
    "splice_immediate_flag": false,
    "time_specified_flag": true,
    "pts_time": 89171.723889,
    "break_auto_return": false,
    "break_duration": 59.993267,
    "unique_program_id": 0,
    "avail_num": 0,
    "avail_expected": 0
  }
}
['IN', 'COOKHD-6216.dfw.1080', '05858765-2ebd-41c1-a628-95dbe5b0126c', '/DA4AAAAAAAAAP/wFAUAgOb9f+//3lq6Ln4AUmNiAAAAAAATAAVTQVBTAQEKQ1VFSQCfNDk0Kjq9vRo=', 'PTS-8025455150\n']

{
  "info_section": {
    "table_id": "0xfc",
    "section_syntax_indicator": false,
    "private": false,
    "reserved": "0x3",
    "section_length": 51,
    "protocol_version": 0,
    "encrypted_packet": false,
    "encryption_algorithm": 0,
    "pts_adjustment": 0.0,
    "cw_index": "0x0",
    "tier": "0xfff",
    "splice_command_length": 15,
    "splice_command_type": 5,
    "descriptor_loop_length": 19,
    "crc": "0xfc303300"
  },
  "command": {
    "name": "Splice Insert",
    "splice_event_id": 8447411,
    "splice_event_cancel_indicator": false,
    "out_of_network_indicator": false,
    "program_splice_flag": true,
    "duration_flag": false,
    "splice_immediate_flag": false,
    "time_specified_flag": true,
    "pts_time": 87349.370022,
    "unique_program_id": 0,
    "avail_num": 0,
    "avail_expected": 0
  }
}
['IN', 'COOKHD-6216.dfw.1080', 'b5e2b7d3-540a-4ec4-9ef6-fe06f2a8f1b9', '/DAzAAAAAAAAAP/wDwUAgOWzf0//1JQa5gAAAAAAEwAFU0FQUwEBCkNVRUkAnzQ5NCNL7U7T', 'PTS-7861443302\n']

{
  "info_section": {
    "table_id": "0xfc",
    "section_syntax_indicator": false,
    "private": false,
    "reserved": "0x3",
    "section_length": 56,
    "protocol_version": 0,
    "encrypted_packet": false,
    "encryption_algorithm": 0,
    "pts_adjustment": 0.0,
    "cw_index": "0x0",
    "tier": "0xfff",
    "splice_command_length": 20,
    "splice_command_type": 5,
    "descriptor_loop_length": 19,
    "crc": "0xfc303800"
  },
  "command": {
    "name": "Splice Insert",
    "splice_event_id": 8447391,
    "splice_event_cancel_indicator": false,
    "out_of_network_indicator": true,
    "program_splice_flag": true,
    "duration_flag": true,
    "splice_immediate_flag": false,
    "time_specified_flag": true,
    "pts_time": 87289.243289,
    "break_auto_return": false,
    "break_duration": 59.993267,
    "unique_program_id": 0,
    "avail_num": 0,
    "avail_expected": 0
  }
}
['IN', 'COOKHD-6216.dfw.1080', 'dbf8867e-8487-4e01-b3c9-e3b13d8100f9', '/DA4AAAAAAAAAP/wFAUAgOWff+//1EGImH4AUmNiAAAAAAATAAVTQVBTAQEKQ1VFSQCfNDk0Ks+fBk8=', 'PTS-7856031896\n']

{
  "info_section": {
    "table_id": "0xfc",
    "section_syntax_indicator": false,
    "private": false,
    "reserved": "0x3",
    "section_length": 51,
    "protocol_version": 0,
    "encrypted_packet": false,
    "encryption_algorithm": 0,
    "pts_adjustment": 0.0,
    "cw_index": "0x0",
    "tier": "0xfff",
    "splice_command_length": 15,
    "splice_command_type": 5,
    "descriptor_loop_length": 19,
    "crc": "0xfc303300"
  },
  "command": {
    "name": "Splice Insert",
    "splice_event_id": 8447111,
    "splice_event_cancel_indicator": false,
    "out_of_network_indicator": false,
    "program_splice_flag": true,
    "duration_flag": false,
    "splice_immediate_flag": false,
    "time_specified_flag": true,
    "pts_time": 85408.130722,
    "unique_program_id": 0,
    "avail_num": 0,
    "avail_expected": 0
  }
}
['IN', 'COOKHD-6216.dfw.1080', '5b51fbc5-5fbc-43bd-ab52-0aee17b24f5e', '/DAzAAAAAAAAAP/wDwUAgOSHf0//yio39QAAAAAAEwAFU0FQUwEBCkNVRUkAnzQ5NCMeog1/', 'PTS-7686731765\n']

{
  "info_section": {
    "table_id": "0xfc",
    "section_syntax_indicator": false,
    "private": false,
    "reserved": "0x3",
    "section_length": 56,
    "protocol_version": 0,
    "encrypted_packet": false,
    "encryption_algorithm": 0,
    "pts_adjustment": 0.0,
    "cw_index": "0x0",
    "tier": "0xfff",
    "splice_command_length": 20,
    "splice_command_type": 5,
    "descriptor_loop_length": 19,
    "crc": "0xfc303800"
  },
  "command": {
    "name": "Splice Insert",
    "splice_event_id": 8447091,
    "splice_event_cancel_indicator": false,
    "out_of_network_indicator": true,
    "program_splice_flag": true,
    "duration_flag": true,
    "splice_immediate_flag": false,
    "time_specified_flag": true,
    "pts_time": 85348.003989,
    "break_auto_return": false,
    "break_duration": 59.993267,
    "unique_program_id": 0,
    "avail_num": 0,
    "avail_expected": 0
  }
}
['IN', 'COOKHD-6216.dfw.1080', '08cdc428-8f73-453a-abde-a4006210c8b6', '/DA4AAAAAAAAAP/wFAUAgORzf+//ydelp34AUmNiAAAAAAATAAVTQVBTAQEKQ1VFSQCfNDk0Kk5vM9Q=', 'PTS-7681320359\n']

{
  "info_section": {
    "table_id": "0xfc",
    "section_syntax_indicator": false,
    "private": false,
    "reserved": "0x3",
    "section_length": 51,
    "protocol_version": 0,
    "encrypted_packet": false,
    "encryption_algorithm": 0,
    "pts_adjustment": 0.0,
    "cw_index": "0x0",
    "tier": "0xfff",
    "splice_command_length": 15,
    "splice_command_type": 5,
    "descriptor_loop_length": 19,
    "crc": "0xfc303300"
  },
  "command": {
    "name": "Splice Insert",
    "splice_event_id": 8446781,
    "splice_event_cancel_indicator": false,
    "out_of_network_indicator": false,
    "program_splice_flag": true,
    "duration_flag": false,
    "splice_immediate_flag": false,
    "time_specified_flag": true,
    "pts_time": 83726.684289,
    "unique_program_id": 0,
    "avail_num": 0,
    "avail_expected": 0
  }
}
['IN', 'COOKHD-6216.dfw.1080', 'd05d68ad-413e-4d99-b39c-eec92cafcd50', '/DAzAAAAAAAAAP/wDwUAgOM9f0//wSUacgAAAAAAEwAFU0FQUwEBCkNVRUkAnzQ5NCNXQVoc', 'PTS-7535401586\n']

{
  "info_section": {
    "table_id": "0xfc",
    "section_syntax_indicator": false,
    "private": false,
    "reserved": "0x3",
    "section_length": 56,
    "protocol_version": 0,
    "encrypted_packet": false,
    "encryption_algorithm": 0,
    "pts_adjustment": 0.0,
    "cw_index": "0x0",
    "tier": "0xfff",
    "splice_command_length": 20,
    "splice_command_type": 5,
    "descriptor_loop_length": 19,
    "crc": "0xfc303800"
  },
  "command": {
    "name": "Splice Insert",
    "splice_event_id": 8446771,
    "splice_event_cancel_indicator": false,
    "out_of_network_indicator": true,
    "program_splice_flag": true,
    "duration_flag": true,
    "splice_immediate_flag": false,
    "time_specified_flag": true,
    "pts_time": 83666.590922,
    "break_auto_return": false,
    "break_duration": 59.993267,
    "unique_program_id": 0,
    "avail_num": 0,
    "avail_expected": 0
  }
}
['IN', 'COOKHD-6216.dfw.1080', '677f6f80-0b99-433b-b439-22e0f3b912fb', '/DA4AAAAAAAAAP/wFAUAgOMzf+//wNKT334AUmNiAAAAAAATAAVTQVBTAQEKQ1VFSQCfNDk0KnDtX6U=', 'PTS-7529993183\n']

{
  "info_section": {
    "table_id": "0xfc",
    "section_syntax_indicator": false,
    "private": false,
    "reserved": "0x3",
    "section_length": 51,
    "protocol_version": 0,
    "encrypted_packet": false,
    "encryption_algorithm": 0,
    "pts_adjustment": 0.0,
    "cw_index": "0x0",
    "tier": "0xfff",
    "splice_command_length": 15,
    "splice_command_type": 5,
    "descriptor_loop_length": 19,
    "crc": "0xfc303300"
  },
  "command": {
    "name": "Splice Insert",
    "splice_event_id": 7666411,
    "splice_event_cancel_indicator": false,
    "out_of_network_indicator": false,
    "program_splice_flag": true,
    "duration_flag": false,
    "splice_immediate_flag": false,
    "time_specified_flag": true,
    "pts_time": 81921.113856,
    "unique_program_id": 0,
    "avail_num": 0,
    "avail_expected": 0
  }
}
['IN', 'COOKHD-6216.dfw.1080', '0375649a-02e2-48a1-b0c4-084937dca6ae', '/DAzAAAAAAAAAP/wDwUAdPrrf0//t3WHlwAAAAAAEwAFU0FQUwEBCkNVRUkAnzQ5NCMLd8wR', 'PTS-7372900247\n']

{
  "info_section": {
    "table_id": "0xfc",
    "section_syntax_indicator": false,
    "private": false,
    "reserved": "0x3",
    "section_length": 56,
    "protocol_version": 0,
    "encrypted_packet": false,
    "encryption_algorithm": 0,
    "pts_adjustment": 0.0,
    "cw_index": "0x0",
    "tier": "0xfff",
    "splice_command_length": 20,
    "splice_command_type": 5,
    "descriptor_loop_length": 19,
    "crc": "0xfc303800"
  },
  "command": {
    "name": "Splice Insert",
    "splice_event_id": 7666401,
    "splice_event_cancel_indicator": false,
    "out_of_network_indicator": true,
    "program_splice_flag": true,
    "duration_flag": true,
    "splice_immediate_flag": false,
    "time_specified_flag": true,
    "pts_time": 81861.053856,
    "break_auto_return": false,
    "break_duration": 59.993267,
    "unique_program_id": 0,
    "avail_num": 0,
    "avail_expected": 0
  }
}
['IN', 'COOKHD-6216.dfw.1080', 'dce21607-52a5-432b-a2d3-ca6d6bbfc6be', '/DA4AAAAAAAAAP/wFAUAdPrhf+//tyMMv34AUmNiAAAAAAATAAVTQVBTAQEKQ1VFSQCfNDk0KryjZrQ=', 'PTS-7367494847\n']

{
  "info_section": {
    "table_id": "0xfc",
    "section_syntax_indicator": false,
    "private": false,
    "reserved": "0x3",
    "section_length": 51,
    "protocol_version": 0,
    "encrypted_packet": false,
    "encryption_algorithm": 0,
    "pts_adjustment": 0.0,
    "cw_index": "0x0",
    "tier": "0xfff",
    "splice_command_length": 15,
    "splice_command_type": 5,
    "descriptor_loop_length": 19,
    "crc": "0xfc303300"
  },
  "command": {
    "name": "Splice Insert",
    "splice_event_id": 7666031,
    "splice_event_cancel_indicator": false,
    "out_of_network_indicator": false,
    "program_splice_flag": true,
    "duration_flag": false,
    "splice_immediate_flag": false,
    "time_specified_flag": true,
    "pts_time": 80091.552789,
    "unique_program_id": 0,
    "avail_num": 0,
    "avail_expected": 0
  }
}
['IN', 'COOKHD-6216.dfw.1080', '4aab798e-c537-4ae8-9e7a-ad2d48b2eb86', '/DAzAAAAAAAAAP/wDwUAdPlvf0//raUChwAAAAAAEwAFU0FQUwEBCkNVRUkAnzQ5NCMK3ol/', 'PTS-7208239751\n']

{
  "info_section": {
    "table_id": "0xfc",
    "section_syntax_indicator": false,
    "private": false,
    "reserved": "0x3",
    "section_length": 56,
    "protocol_version": 0,
    "encrypted_packet": false,
    "encryption_algorithm": 0,
    "pts_adjustment": 0.0,
    "cw_index": "0x0",
    "tier": "0xfff",
    "splice_command_length": 20,
    "splice_command_type": 5,
    "descriptor_loop_length": 19,
    "crc": "0xfc303800"
  },
  "command": {
    "name": "Splice Insert",
    "splice_event_id": 7666011,
    "splice_event_cancel_indicator": false,
    "out_of_network_indicator": true,
    "program_splice_flag": true,
    "duration_flag": true,
    "splice_immediate_flag": false,
    "time_specified_flag": true,
    "pts_time": 80031.426056,
    "break_auto_return": false,
    "break_duration": 59.993267,
    "unique_program_id": 0,
    "avail_num": 0,
    "avail_expected": 0
  }
}
['IN', 'COOKHD-6216.dfw.1080', '4edda09b-5d87-43e1-91c9-9a51c3d08e1d', '/DA4AAAAAAAAAP/wFAUAdPlbf+//rVJwOX4AUmNiAAAAAAATAAVTQVBTAQEKQ1VFSQCfNDk0KtYhRPU=', 'PTS-7202828345\n']

{
  "info_section": {
    "table_id": "0xfc",
    "section_syntax_indicator": false,
    "private": false,
    "reserved": "0x3",
    "section_length": 51,
    "protocol_version": 0,
    "encrypted_packet": false,
    "encryption_algorithm": 0,
    "pts_adjustment": 0.0,
    "cw_index": "0x0",
    "tier": "0xfff",
    "splice_command_length": 15,
    "splice_command_type": 5,
    "descriptor_loop_length": 19,
    "crc": "0xfc303300"
  },
  "command": {
    "name": "Splice Insert",
    "splice_event_id": 7665731,
    "splice_event_cancel_indicator": false,
    "out_of_network_indicator": false,
    "program_splice_flag": true,
    "duration_flag": false,
    "splice_immediate_flag": false,
    "time_specified_flag": true,
    "pts_time": 78345.141456,
    "unique_program_id": 0,
    "avail_num": 0,
    "avail_expected": 0
  }
}
['IN', 'COOKHD-6216.dfw.1080', '88579662-2331-44ad-b7b9-7cd0f61d6799', '/DAzAAAAAAAAAP/wDwUAdPhDf0//pEatywAAAAAAEwAFU0FQUwEBCkNVRUkAnzQ5NCOStzna', 'PTS-7051062731\n']

{
  "info_section": {
    "table_id": "0xfc",
    "section_syntax_indicator": false,
    "private": false,
    "reserved": "0x3",
    "section_length": 56,
    "protocol_version": 0,
    "encrypted_packet": false,
    "encryption_algorithm": 0,
    "pts_adjustment": 0.0,
    "cw_index": "0x0",
    "tier": "0xfff",
    "splice_command_length": 20,
    "splice_command_type": 5,
    "descriptor_loop_length": 19,
    "crc": "0xfc303800"
  },
  "command": {
    "name": "Splice Insert",
    "splice_event_id": 7665721,
    "splice_event_cancel_indicator": false,
    "out_of_network_indicator": true,
    "program_splice_flag": true,
    "duration_flag": true,
    "splice_immediate_flag": false,
    "time_specified_flag": true,
    "pts_time": 78285.014722,
    "break_auto_return": false,
    "break_duration": 59.993267,
    "unique_program_id": 0,
    "avail_num": 0,
    "avail_expected": 0
  }
}
['IN', 'COOKHD-6216.dfw.1080', '133035ed-5e35-4c92-9a71-837d08777de8', '/DA4AAAAAAAAAP/wFAUAdPg5f+//o/QbfX4AUmNiAAAAAAATAAVTQVBTAQEKQ1VFSQCfNDk0KsebYS0=', 'PTS-7045651325\n']

{
  "info_section": {
    "table_id": "0xfc",
    "section_syntax_indicator": false,
    "private": false,
    "reserved": "0x3",
    "section_length": 51,
    "protocol_version": 0,
    "encrypted_packet": false,
    "encryption_algorithm": 0,
    "pts_adjustment": 0.0,
    "cw_index": "0x0",
    "tier": "0xfff",
    "splice_command_length": 15,
    "splice_command_type": 5,
    "descriptor_loop_length": 19,
    "crc": "0xfc303300"
  },
  "command": {
    "name": "Splice Insert",
    "splice_event_id": 7665441,
    "splice_event_cancel_indicator": false,
    "out_of_network_indicator": false,
    "program_splice_flag": true,
    "duration_flag": false,
    "splice_immediate_flag": false,
    "time_specified_flag": true,
    "pts_time": 76515.713856,
    "unique_program_id": 0,
    "avail_num": 0,
    "avail_expected": 0
  }
}
['IN', 'COOKHD-6216.dfw.1080', '1d542153-699e-466a-980a-026e9954dc48', '/DAzAAAAAAAAAP/wDwUAdPchf0//mnZXpwAAAAAAEwAFU0FQUwEBCkNVRUkAnzQ5NCPaHSwI', 'PTS-6886414247\n']

{
  "info_section": {
    "table_id": "0xfc",
    "section_syntax_indicator": false,
    "private": false,
    "reserved": "0x3",
    "section_length": 56,
    "protocol_version": 0,
    "encrypted_packet": false,
    "encryption_algorithm": 0,
    "pts_adjustment": 0.0,
    "cw_index": "0x0",
    "tier": "0xfff",
    "splice_command_length": 20,
    "splice_command_type": 5,
    "descriptor_loop_length": 19,
    "crc": "0xfc303800"
  },
  "command": {
    "name": "Splice Insert",
    "splice_event_id": 7665421,
    "splice_event_cancel_indicator": false,
    "out_of_network_indicator": true,
    "program_splice_flag": true,
    "duration_flag": true,
    "splice_immediate_flag": false,
    "time_specified_flag": true,
    "pts_time": 76455.587122,
    "break_auto_return": false,
    "break_duration": 59.993267,
    "unique_program_id": 0,
    "avail_num": 0,
    "avail_expected": 0
  }
}
['IN', 'COOKHD-6216.dfw.1080', 'a9e70046-7521-4d44-9bbd-e2a3bfd6f1e6', '/DA4AAAAAAAAAP/wFAUAdPcNf+//miPFWX4AUmNiAAAAAAATAAVTQVBTAQEKQ1VFSQCfNDk0KkN13Bw=', 'PTS-6881002841\n']

{
  "info_section": {
    "table_id": "0xfc",
    "section_syntax_indicator": false,
    "private": false,
    "reserved": "0x3",
    "section_length": 51,
    "protocol_version": 0,
    "encrypted_packet": false,
    "encryption_algorithm": 0,
    "pts_adjustment": 0.0,
    "cw_index": "0x0",
    "tier": "0xfff",
    "splice_command_length": 15,
    "splice_command_type": 5,
    "descriptor_loop_length": 19,
    "crc": "0xfc303300"
  },
  "command": {
    "name": "Splice Insert",
    "splice_event_id": 7665161,
    "splice_event_cancel_indicator": false,
    "out_of_network_indicator": false,
    "program_splice_flag": true,
    "duration_flag": false,
    "splice_immediate_flag": false,
    "time_specified_flag": true,
    "pts_time": 74731.364622,
    "unique_program_id": 0,
    "avail_num": 0,
    "avail_expected": 0
  }
}
['IN', 'COOKHD-6216.dfw.1080', 'dd90c77c-a46c-4444-9f17-a4e5e337957b', '/DAzAAAAAAAAAP/wDwUAdPYJf0//kOPpYAAAAAAAEwAFU0FQUwEBCkNVRUkAnzQ5NCNOXVxJ', 'PTS-6725822816\n']

{
  "info_section": {
    "table_id": "0xfc",
    "section_syntax_indicator": false,
    "private": false,
    "reserved": "0x3",
    "section_length": 56,
    "protocol_version": 0,
    "encrypted_packet": false,
    "encryption_algorithm": 0,
    "pts_adjustment": 0.0,
    "cw_index": "0x0",
    "tier": "0xfff",
    "splice_command_length": 20,
    "splice_command_type": 5,
    "descriptor_loop_length": 19,
    "crc": "0xfc303800"
  },
  "command": {
    "name": "Splice Insert",
    "splice_event_id": 7665151,
    "splice_event_cancel_indicator": false,
    "out_of_network_indicator": true,
    "program_splice_flag": true,
    "duration_flag": true,
    "splice_immediate_flag": false,
    "time_specified_flag": true,
    "pts_time": 74671.271256,
    "break_auto_return": false,
    "break_duration": 59.993267,
    "unique_program_id": 0,
    "avail_num": 0,
    "avail_expected": 0
  }
}
['IN', 'COOKHD-6216.dfw.1080', 'f5a092ab-1704-4877-95ba-2eae0e3592e0', '/DA4AAAAAAAAAP/wFAUAdPX/f+//kJFizX4AUmNiAAAAAAATAAVTQVBTAQEKQ1VFSQCfNDk0KkqCpyo=', 'PTS-6720414413\n']

{
  "info_section": {
    "table_id": "0xfc",
    "section_syntax_indicator": false,
    "private": false,
    "reserved": "0x3",
    "section_length": 51,
    "protocol_version": 0,
    "encrypted_packet": false,
    "encryption_algorithm": 0,
    "pts_adjustment": 0.0,
    "cw_index": "0x0",
    "tier": "0xfff",
    "splice_command_length": 15,
    "splice_command_type": 5,
    "descriptor_loop_length": 19,
    "crc": "0xfc303300"
  },
  "command": {
    "name": "Splice Insert",
    "splice_event_id": 7664871,
    "splice_event_cancel_indicator": false,
    "out_of_network_indicator": false,
    "program_splice_flag": true,
    "duration_flag": false,
    "splice_immediate_flag": false,
    "time_specified_flag": true,
    "pts_time": 72913.114856,
    "unique_program_id": 0,
    "avail_num": 0,
    "avail_expected": 0
  }
}
['IN', 'COOKHD-6216.dfw.1080', '3f735350-e32c-4916-8af5-79acfe781826', '/DAzAAAAAAAAAP/wDwUAdPTnf0//hyLs8QAAAAAAEwAFU0FQUwEBCkNVRUkAnzQ5NCMEHjy4', 'PTS-6562180337\n']

{
  "info_section": {
    "table_id": "0xfc",
    "section_syntax_indicator": false,
    "private": false,
    "reserved": "0x3",
    "section_length": 56,
    "protocol_version": 0,
    "encrypted_packet": false,
    "encryption_algorithm": 0,
    "pts_adjustment": 0.0,
    "cw_index": "0x0",
    "tier": "0xfff",
    "splice_command_length": 20,
    "splice_command_type": 5,
    "descriptor_loop_length": 19,
    "crc": "0xfc303800"
  },
  "command": {
    "name": "Splice Insert",
    "splice_event_id": 7664851,
    "splice_event_cancel_indicator": false,
    "out_of_network_indicator": true,
    "program_splice_flag": true,
    "duration_flag": true,
    "splice_immediate_flag": false,
    "time_specified_flag": true,
    "pts_time": 72852.988122,
    "break_auto_return": false,
    "break_duration": 59.993267,
    "unique_program_id": 0,
    "avail_num": 0,
    "avail_expected": 0
  }
}
['IN', 'COOKHD-6216.dfw.1080', '20225594-ac96-4c25-b2e4-dfd6c10acc00', '/DA4AAAAAAAAAP/wFAUAdPTTf+//htBao34AUmNiAAAAAAATAAVTQVBTAQEKQ1VFSQCfNDk0KivNqSw=', 'PTS-6556768931\n']

{
  "info_section": {
    "table_id": "0xfc",
    "section_syntax_indicator": false,
    "private": false,
    "reserved": "0x3",
    "section_length": 51,
    "protocol_version": 0,
    "encrypted_packet": false,
    "encryption_algorithm": 0,
    "pts_adjustment": 0.0,
    "cw_index": "0x0",
    "tier": "0xfff",
    "splice_command_length": 15,
    "splice_command_type": 5,
    "descriptor_loop_length": 19,
    "crc": "0xfc303300"
  },
  "command": {
    "name": "Splice Insert",
    "splice_event_id": 7664551,
    "splice_event_cancel_indicator": false,
    "out_of_network_indicator": false,
    "program_splice_flag": true,
    "duration_flag": false,
    "splice_immediate_flag": false,
    "time_specified_flag": true,
    "pts_time": 71101.638522,
    "unique_program_id": 0,
    "avail_num": 0,
    "avail_expected": 0
  }
}
['IN', 'COOKHD-6216.dfw.1080', '59f45b56-5c87-47d2-8739-c1330ebc262f', '/DAzAAAAAAAAAP/wDwUAdPOnf0//fWs9ywAAAAAAEwAFU0FQUwEBCkNVRUkAnzQ5NCOXjA3T', 'PTS-6399147467\n']

{
  "info_section": {
    "table_id": "0xfc",
    "section_syntax_indicator": false,
    "private": false,
    "reserved": "0x3",
    "section_length": 56,
    "protocol_version": 0,
    "encrypted_packet": false,
    "encryption_algorithm": 0,
    "pts_adjustment": 0.0,
    "cw_index": "0x0",
    "tier": "0xfff",
    "splice_command_length": 20,
    "splice_command_type": 5,
    "descriptor_loop_length": 19,
    "crc": "0xfc303800"
  },
  "command": {
    "name": "Splice Insert",
    "splice_event_id": 7664531,
    "splice_event_cancel_indicator": false,
    "out_of_network_indicator": true,
    "program_splice_flag": true,
    "duration_flag": true,
    "splice_immediate_flag": false,
    "time_specified_flag": true,
    "pts_time": 71041.511789,
    "break_auto_return": false,
    "break_duration": 59.993267,
    "unique_program_id": 0,
    "avail_num": 0,
    "avail_expected": 0
  }
}
['IN', 'COOKHD-6216.dfw.1080', '24912e41-6557-4a13-8925-6bff70f65044', '/DA4AAAAAAAAAP/wFAUAdPOTf+//fRirfX4AUmNiAAAAAAATAAVTQVBTAQEKQ1VFSQCfNDk0Ku3Wdfc=', 'PTS-6393736061\n']

{
  "info_section": {
    "table_id": "0xfc",
    "section_syntax_indicator": false,
    "private": false,
    "reserved": "0x3",
    "section_length": 51,
    "protocol_version": 0,
    "encrypted_packet": false,
    "encryption_algorithm": 0,
    "pts_adjustment": 0.0,
    "cw_index": "0x0",
    "tier": "0xfff",
    "splice_command_length": 15,
    "splice_command_type": 5,
    "descriptor_loop_length": 19,
    "crc": "0xfc303300"
  },
  "command": {
    "name": "Splice Insert",
    "splice_event_id": 7664281,
    "splice_event_cancel_indicator": false,
    "out_of_network_indicator": false,
    "program_splice_flag": true,
    "duration_flag": false,
    "splice_immediate_flag": false,
    "time_specified_flag": true,
    "pts_time": 69158.497322,
    "unique_program_id": 0,
    "avail_num": 0,
    "avail_expected": 0
  }
}
['IN', 'COOKHD-6216.dfw.1080', 'a6976ddc-25f4-49a1-aaa4-18dd46d2cc03', '/DAzAAAAAAAAAP/wDwUAdPKZf0//cv6+NwAAAAAAEwAFU0FQUwEBCkNVRUkAnzQ5NCNv8Rbc', 'PTS-6224264759\n']

{
  "info_section": {
    "table_id": "0xfc",
    "section_syntax_indicator": false,
    "private": false,
    "reserved": "0x3",
    "section_length": 56,
    "protocol_version": 0,
    "encrypted_packet": false,
    "encryption_algorithm": 0,
    "pts_adjustment": 0.0,
    "cw_index": "0x0",
    "tier": "0xfff",
    "splice_command_length": 20,
    "splice_command_type": 5,
    "descriptor_loop_length": 19,
    "crc": "0xfc303800"
  },
  "command": {
    "name": "Splice Insert",
    "splice_event_id": 7664261,
    "splice_event_cancel_indicator": false,
    "out_of_network_indicator": true,
    "program_splice_flag": true,
    "duration_flag": true,
    "splice_immediate_flag": false,
    "time_specified_flag": true,
    "pts_time": 69098.370589,
    "break_auto_return": false,
    "break_duration": 59.993267,
    "unique_program_id": 0,
    "avail_num": 0,
    "avail_expected": 0
  }
}
['IN', 'COOKHD-6216.dfw.1080', 'a5008be9-f232-4a27-a709-f80fcd4b30cc', '/DA4AAAAAAAAAP/wFAUAdPKFf+//cqwr6X4AUmNiAAAAAAATAAVTQVBTAQEKQ1VFSQCfNDk0KrrVDL4=', 'PTS-6218853353\n']

{
  "info_section": {
    "table_id": "0xfc",
    "section_syntax_indicator": false,
    "private": false,
    "reserved": "0x3",
    "section_length": 51,
    "protocol_version": 0,
    "encrypted_packet": false,
    "encryption_algorithm": 0,
    "pts_adjustment": 0.0,
    "cw_index": "0x0",
    "tier": "0xfff",
    "splice_command_length": 15,
    "splice_command_type": 5,
    "descriptor_loop_length": 19,
    "crc": "0xfc303300"
  },
  "command": {
    "name": "Splice Insert",
    "splice_event_id": 7664011,
    "splice_event_cancel_indicator": false,
    "out_of_network_indicator": false,
    "program_splice_flag": true,
    "duration_flag": false,
    "splice_immediate_flag": false,
    "time_specified_flag": true,
    "pts_time": 67580.153889,
    "unique_program_id": 0,
    "avail_num": 0,
    "avail_expected": 0
  }
}
['IN', 'COOKHD-6216.dfw.1080', '26afad08-c4b5-4a41-ac76-46729fce97bf', '/DAzAAAAAAAAAP/wDwUAdPGLf0//aoc32gAAAAAAEwAFU0FQUwEBCkNVRUkAnzQ5NCNuF81g', 'PTS-6082213850\n']

{
  "info_section": {
    "table_id": "0xfc",
    "section_syntax_indicator": false,
    "private": false,
    "reserved": "0x3",
    "section_length": 56,
    "protocol_version": 0,
    "encrypted_packet": false,
    "encryption_algorithm": 0,
    "pts_adjustment": 0.0,
    "cw_index": "0x0",
    "tier": "0xfff",
    "splice_command_length": 20,
    "splice_command_type": 5,
    "descriptor_loop_length": 19,
    "crc": "0xfc303800"
  },
  "command": {
    "name": "Splice Insert",
    "splice_event_id": 7663991,
    "splice_event_cancel_indicator": false,
    "out_of_network_indicator": true,
    "program_splice_flag": true,
    "duration_flag": true,
    "splice_immediate_flag": false,
    "time_specified_flag": true,
    "pts_time": 67520.027156,
    "break_auto_return": false,
    "break_duration": 59.993267,
    "unique_program_id": 0,
    "avail_num": 0,
    "avail_expected": 0
  }
}
['IN', 'COOKHD-6216.dfw.1080', '937bf89f-396a-4a31-b848-0aa44b48eccc', '/DA4AAAAAAAAAP/wFAUAdPF3f+//ajSljH4AUmNiAAAAAAATAAVTQVBTAQEKQ1VFSQCfNDk0KqP8f1Q=', 'PTS-6076802444\n']

{
  "info_section": {
    "table_id": "0xfc",
    "section_syntax_indicator": false,
    "private": false,
    "reserved": "0x3",
    "section_length": 51,
    "protocol_version": 0,
    "encrypted_packet": false,
    "encryption_algorithm": 0,
    "pts_adjustment": 0.0,
    "cw_index": "0x0",
    "tier": "0xfff",
    "splice_command_length": 15,
    "splice_command_type": 5,
    "descriptor_loop_length": 19,
    "crc": "0xfc303300"
  },
  "command": {
    "name": "Splice Insert",
    "splice_event_id": 7663711,
    "splice_event_cancel_indicator": false,
    "out_of_network_indicator": false,
    "program_splice_flag": true,
    "duration_flag": false,
    "splice_immediate_flag": false,
    "time_specified_flag": true,
    "pts_time": 65792.501356,
    "unique_program_id": 0,
    "avail_num": 0,
    "avail_expected": 0
  }
}
['IN', 'COOKHD-6216.dfw.1080', 'd49173b9-e53f-4894-ba75-cd4f7230505d', '/DAzAAAAAAAAAP/wDwUAdPBff0//YPBAQgAAAAAAEwAFU0FQUwEBCkNVRUkAnzQ5NCMY208M', 'PTS-5921325122\n']

{
  "info_section": {
    "table_id": "0xfc",
    "section_syntax_indicator": false,
    "private": false,
    "reserved": "0x3",
    "section_length": 56,
    "protocol_version": 0,
    "encrypted_packet": false,
    "encryption_algorithm": 0,
    "pts_adjustment": 0.0,
    "cw_index": "0x0",
    "tier": "0xfff",
    "splice_command_length": 20,
    "splice_command_type": 5,
    "descriptor_loop_length": 19,
    "crc": "0xfc303800"
  },
  "command": {
    "name": "Splice Insert",
    "splice_event_id": 7663691,
    "splice_event_cancel_indicator": false,
    "out_of_network_indicator": true,
    "program_splice_flag": true,
    "duration_flag": true,
    "splice_immediate_flag": false,
    "time_specified_flag": true,
    "pts_time": 65732.374622,
    "break_auto_return": false,
    "break_duration": 59.993267,
    "unique_program_id": 0,
    "avail_num": 0,
    "avail_expected": 0
  }
}
['IN', 'COOKHD-6216.dfw.1080', 'dc757d0b-baef-4016-8995-02e90c330da9', '/DA4AAAAAAAAAP/wFAUAdPBLf+//YJ2t9H4AUmNiAAAAAAATAAVTQVBTAQEKQ1VFSQCfNDk0Kv/0rhs=', 'PTS-5915913716\n']

{
  "info_section": {
    "table_id": "0xfc",
    "section_syntax_indicator": false,
    "private": false,
    "reserved": "0x3",
    "section_length": 51,
    "protocol_version": 0,
    "encrypted_packet": false,
    "encryption_algorithm": 0,
    "pts_adjustment": 0.0,
    "cw_index": "0x0",
    "tier": "0xfff",
    "splice_command_length": 15,
    "splice_command_type": 5,
    "descriptor_loop_length": 19,
    "crc": "0xfc303300"
  },
  "command": {
    "name": "Splice Insert",
    "splice_event_id": 7663431,
    "splice_event_cancel_indicator": false,
    "out_of_network_indicator": false,
    "program_splice_flag": true,
    "duration_flag": false,
    "splice_immediate_flag": false,
    "time_specified_flag": true,
    "pts_time": 63978.889556,
    "unique_program_id": 0,
    "avail_num": 0,
    "avail_expected": 0
  }
}
['IN', 'COOKHD-6216.dfw.1080', 'b7898e4e-6ed4-456f-b078-a341d9fb6eb1', '/DAzAAAAAAAAAP/wDwUAdO9Hf0//VzWiXAAAAAAAEwAFU0FQUwEBCkNVRUkAnzQ5NCOM8wZX', 'PTS-5758100060\n']

{
  "info_section": {
    "table_id": "0xfc",
    "section_syntax_indicator": false,
    "private": false,
    "reserved": "0x3",
    "section_length": 56,
    "protocol_version": 0,
    "encrypted_packet": false,
    "encryption_algorithm": 0,
    "pts_adjustment": 0.0,
    "cw_index": "0x0",
    "tier": "0xfff",
    "splice_command_length": 20,
    "splice_command_type": 5,
    "descriptor_loop_length": 19,
    "crc": "0xfc303800"
  },
  "command": {
    "name": "Splice Insert",
    "splice_event_id": 7663411,
    "splice_event_cancel_indicator": false,
    "out_of_network_indicator": true,
    "program_splice_flag": true,
    "duration_flag": true,
    "splice_immediate_flag": false,
    "time_specified_flag": true,
    "pts_time": 63918.762822,
    "break_auto_return": false,
    "break_duration": 59.993267,
    "unique_program_id": 0,
    "avail_num": 0,
    "avail_expected": 0
  }
}
['IN', 'COOKHD-6216.dfw.1080', 'd6c081a3-9822-4a74-9481-c58947670077', '/DA4AAAAAAAAAP/wFAUAdO8zf+//VuMQDn4AUmNiAAAAAAATAAVTQVBTAQEKQ1VFSQCfNDk0KqudKHk=', 'PTS-5752688654\n']

['IN', 'COOKHD-6216.dfw.1080', 'fb06612e-6e59-4bd5-a7ba-c3b0a16f93db', '/DAzAAAAAAAAAP/wDwUAiJuHf0//JfHpDQAAAAAAEwAFU0FQUwEBCkNVRUkAnzQ5NCNKxqLo', 'PTS-4931578125\n']

['IN', 'COOKHD-6216.dfw.1080', 'fb06612e-6e59-4bd5-a7ba-c3b0a16f93db', '/DAzAAAAAAAAAP/wDwUAiJuHf0//JfHpDQAAAAAAEwAFU0FQUwEBCkNVRUkAnzQ5NCNKxqLo', 'PTS-4931578125\n']

['IN', 'COOKHD-6216.dfw.1080', '21fd4c26-3aea-4abb-8206-40da6b885662', '/DAzAAAAAAAAAP/wDwUAe1Rjf0//HvCpKAAAAAAAEwAFU0FQUwEBCkNVRUkAnzQ5NCOXFCTt', 'PTS-4814055720\n']

['IN', 'COOKHD-6216.dfw.1080', 'dea024ac-1526-4050-bff4-989fcf268722', '/DAzAAAAAAAAAP/wDwUAe1NOf0//FI7uPQAAAAAAEwAFU0FQUwEBCkNVRUkAnzQ5NCM32k/H', 'PTS-4639878717\n']

['IN', 'COOKHD-6216.dfw.1080', '322173ef-e063-4c49-8e54-9004bf4ae5b3', '/DAzAAAAAAAAAP/wDwUAe1KXf0//Czx3sgAAAAAAEwAFU0FQUwEBCkNVRUkAnzQ5NCOjI92d', 'PTS-4483479474\n']

['IN', 'COOKHD-6216.dfw.1080', '6b24176c-dd62-464f-b1be-3d3e777f2698', '/DAzAAAAAAAAAP/wDwUAe1GCf0//AXW1OQAAAAAAEwAFU0FQUwEBCkNVRUkAnzQ5NCM5lJm6', 'PTS-4319458617\n']

['IN', 'COOKHD-6216.dfw.1080', '2307fe50-c073-49cb-a64b-6bbed39095fe', '/DAzAAAAAAAAAP/wDwUAe1Ctf0/+9aLhYQAAAAAAEwAFU0FQUwEBCkNVRUkAnzQ5NCOGiZIo', 'PTS-4121092449\n']

['IN', 'COOKHD-6216.dfw.1080', 'b35b8f1b-6c2c-44c5-9b31-1bbdc77fd923', '/DAzAAAAAAAAAP/wDwUAe0+Lf0/+68ejYwAAAAAAEwAFU0FQUwEBCkNVRUkAnzQ5NCNHVsu6', 'PTS-3955729251\n']

['IN', 'COOKHD-6216.dfw.1080', 'ffa681fb-bff1-4004-bde2-070648794107', '/DAzAAAAAAAAAP/wDwUAe06Kf0/+4i/kYAAAAAAAEwAFU0FQUwEBCkNVRUkAnzQ5NCMsoh42', 'PTS-3794789472\n']

['IN', 'COOKHD-6216.dfw.1080', '4c342ee3-733f-4b22-abf6-ac044fabf6b9', '/DAzAAAAAAAAAP/wDwUADFc5f0/+2KCICgAAAAAAEwAFU0FQUwEBCkNVRUkAnzQ5NCNxrAVZ', 'PTS-3634399242\n']

['IN', 'COOKHD-6216.dfw.1080', 'adebfee1-15f2-486e-bb45-da675b63f8f0', '/DAzAAAAAAAAAP/wDwUADFYaf0/+z3O78QAAAAAAEwAFU0FQUwEBCkNVRUkAnzQ5NCM2p2bW', 'PTS-3480468465\n']

['IN', 'COOKHD-6216.dfw.1080', '36f92694-bd96-4ad7-a2ca-c3f6f2161f83', '/DAzAAAAAAAAAP/wDwUADFVSf0/+xVuAsgAAAAAAEwAFU0FQUwEBCkNVRUkAnzQ5NCMsr+sI', 'PTS-3311108274\n']

['IN', 'COOKHD-6216.dfw.1080', '8a2f1b29-8437-4a96-bcdd-113942167edf', '/DAzAAAAAAAAAP/wDwUFCAeXf0/+gbiweAAAAAAAEwAFU0FQUwEBCkNVRUkAnzQ5NCPtrWNg', 'PTS-2176364664\n']

['IN', 'COOKHD-6216.dfw.1080', '21b4d840-62c2-4bc8-958f-1e8cedf7199d', '/DAzAAAAAAAAAP/wDwUFCAZNf0/+eMQR7QAAAAAAEwAFU0FQUwEBCkNVRUkAnzQ5NCNSLDPE', 'PTS-2026115565\n']

['IN', 'COOKHD-6216.dfw.1080', 'd2ad2576-24b2-4ca1-92e5-03b2383698e1', '/DAzAAAAAAAAAP/wDwUFCAUhf0/+b89/HQAAAAAAEwAFU0FQUwEBCkNVRUkAnzQ5NCOoZFZe', 'PTS-1875869469\n']

['IN', 'COOKHD-6216.dfw.1080', 'b37d8152-a5fc-41f6-8160-0a1c24e1227e', '/DAzAAAAAAAAAP/wDwUFCAPhf0/+ZZgPawAAAAAAEwAFU0FQUwEBCkNVRUkAnzQ5NCMepZY7', 'PTS-1704464235\n']

['IN', 'COOKHD-6216.dfw.1080', '1d46371c-0f51-497f-8a68-8b546ccf9412', '/DAzAAAAAAAAAP/wDwUFCAL7f0/+V9MxHAAAAAAAEwAFU0FQUwEBCkNVRUkAnzQ5NCPMiXx/', 'PTS-1473458460\n']

['IN', 'COOKHD-6216.dfw.1080', 'ba4af48e-df44-43e3-a1bc-9bbb64092ebd', '/DAzAAAAAAAAAP/wDwUFCAKXf0/+USPfSwAAAAAAEwAFU0FQUwEBCkNVRUkAnzQ5NCPBhRHZ', 'PTS-1361305419\n']

['IN', 'COOKHD-6216.dfw.1080', 'daf3b2f2-4534-4b38-bb01-078ad396ff31', '/DAzAAAAAAAAAP/wDwUFCAHtf0/+R9BmrgAAAAAAEwAFU0FQUwEBCkNVRUkAnzQ5NCMcoVSJ', 'PTS-1204840110\n']

['IN', 'COOKHD-6216.dfw.1080', '3c18ab47-d2f4-4d56-a82c-70a0fb2c9e2e', '/DAzAAAAAAAAAP/wDwUFCACtf0/+PhLOTQAAAAAAEwAFU0FQUwEBCkNVRUkAnzQ5NCPEo7t0', 'PTS-1041419853\n']

['IN', 'COOKHD-6216.dfw.1080', '412d8af2-e290-425f-b9e6-dba7dc82f77b', '/DAzAAAAAAAAAP/wDwUFB/93f0/+NHLy/wAAAAAAEwAFU0FQUwEBCkNVRUkAnzQ5NCOg/MyL', 'PTS-879948543\n']

['IN', 'COOKHD-6216.dfw.1080', '44087e31-b8ae-4d14-af87-494443fa27e8', '/DAzAAAAAAAAAP/wDwUAgO93f0/+K5MKoAAAAAAAEwAFU0FQUwEBCkNVRUkAnzQ5NCMGVesP', 'PTS-731056800\n']

['IN', 'COOKHD-6216.dfw.1080', '66841ff4-3795-464d-8864-f78f2d949b35', '/DAzAAAAAAAAAP/wDwUAgO4tf0/+InULeAAAAAAAEwAFU0FQUwEBCkNVRUkAnzQ5NCONN1YV', 'PTS-578095992\n']

['IN', 'COOKHD-6216.dfw.1080', 'd0e98f57-d7b6-4b53-ae6e-7779ce5dc0cc', '/DAzAAAAAAAAAP/wDwUAgOz3f0/+GFJdrQAAAAAAEwAFU0FQUwEBCkNVRUkAnzQ5NCOfKZsv', 'PTS-408051117\n']

['IN', 'COOKHD-6216.dfw.1080', 'be55dbd2-1593-4835-878d-ae3cbf5d5150', '/DAzAAAAAAAAAP/wDwUAgOwHf0/+Co2W1AAAAAAAEwAFU0FQUwEBCkNVRUkAnzQ5NCOWapFo', 'PTS-177051348\n']

['IN', 'COOKHD-6216.dfw.1080', 'a5e86d7b-43f6-48c3-a41d-b217d3975b86', '/DAzAAAAAAAAAP/wDwUAgOujf0/+A95FAwAAAAAAEwAFU0FQUwEBCkNVRUkAnzQ5NCP9d9+Z', 'PTS-64898307\n']

['IN', 'COOKHD-6216.dfw.1080', 'b11ef8f8-3cf6-4272-aef1-7845ebb93957', '/DAzAAAAAAAAAP/wDwUAgOrvf0//+lvsIQAAAAAAEwAFU0FQUwEBCkNVRUkAnzQ5NCPSPqqe', 'PTS-8495295521\n']

['IN', 'COOKHD-6216.dfw.1080', 'b6f9fa69-d562-408f-be1e-fc44d7d0fb82', '/DAzAAAAAAAAAP/wDwUAgOnDf0//8Me0XQAAAAAAEwAFU0FQUwEBCkNVRUkAnzQ5NCPQKO01', 'PTS-8334586973\n']

['IN', 'COOKHD-6216.dfw.1080', 'b2a42a93-1c23-467b-bbab-6734263402e9', '/DAzAAAAAAAAAP/wDwUAgOiDf0//5/idEwAAAAAAEwAFU0FQUwEBCkNVRUkAnzQ5NCNvKY4I', 'PTS-8186797331\n']

['IN', 'COOKHD-6216.dfw.1080', '623bfea5-bc68-4e72-b55f-36361d637f02', '/DAzAAAAAAAAAP/wDwUAgOcRf0//3q1MfAAAAAAAEwAFU0FQUwEBCkNVRUkAnzQ5NCNPWglh', 'PTS-8030866556\n']

['IN', 'COOKHD-6216.dfw.1080', 'b5e2b7d3-540a-4ec4-9ef6-fe06f2a8f1b9', '/DAzAAAAAAAAAP/wDwUAgOWzf0//1JQa5gAAAAAAEwAFU0FQUwEBCkNVRUkAnzQ5NCNL7U7T', 'PTS-7861443302\n']

['IN', 'COOKHD-6216.dfw.1080', '5b51fbc5-5fbc-43bd-ab52-0aee17b24f5e', '/DAzAAAAAAAAAP/wDwUAgOSHf0//yio39QAAAAAAEwAFU0FQUwEBCkNVRUkAnzQ5NCMeog1/', 'PTS-7686731765\n']

['IN', 'COOKHD-6216.dfw.1080', 'd05d68ad-413e-4d99-b39c-eec92cafcd50', '/DAzAAAAAAAAAP/wDwUAgOM9f0//wSUacgAAAAAAEwAFU0FQUwEBCkNVRUkAnzQ5NCNXQVoc', 'PTS-7535401586\n']

['IN', 'COOKHD-6216.dfw.1080', '0375649a-02e2-48a1-b0c4-084937dca6ae', '/DAzAAAAAAAAAP/wDwUAdPrrf0//t3WHlwAAAAAAEwAFU0FQUwEBCkNVRUkAnzQ5NCMLd8wR', 'PTS-7372900247\n']

['IN', 'COOKHD-6216.dfw.1080', '4aab798e-c537-4ae8-9e7a-ad2d48b2eb86', '/DAzAAAAAAAAAP/wDwUAdPlvf0//raUChwAAAAAAEwAFU0FQUwEBCkNVRUkAnzQ5NCMK3ol/', 'PTS-7208239751\n']

['IN', 'COOKHD-6216.dfw.1080', '88579662-2331-44ad-b7b9-7cd0f61d6799', '/DAzAAAAAAAAAP/wDwUAdPhDf0//pEatywAAAAAAEwAFU0FQUwEBCkNVRUkAnzQ5NCOStzna', 'PTS-7051062731\n']

['IN', 'COOKHD-6216.dfw.1080', '1d542153-699e-466a-980a-026e9954dc48', '/DAzAAAAAAAAAP/wDwUAdPchf0//mnZXpwAAAAAAEwAFU0FQUwEBCkNVRUkAnzQ5NCPaHSwI', 'PTS-6886414247\n']

['IN', 'COOKHD-6216.dfw.1080', 'dd90c77c-a46c-4444-9f17-a4e5e337957b', '/DAzAAAAAAAAAP/wDwUAdPYJf0//kOPpYAAAAAAAEwAFU0FQUwEBCkNVRUkAnzQ5NCNOXVxJ', 'PTS-6725822816\n']

['IN', 'COOKHD-6216.dfw.1080', '3f735350-e32c-4916-8af5-79acfe781826', '/DAzAAAAAAAAAP/wDwUAdPTnf0//hyLs8QAAAAAAEwAFU0FQUwEBCkNVRUkAnzQ5NCMEHjy4', 'PTS-6562180337\n']

['IN', 'COOKHD-6216.dfw.1080', '59f45b56-5c87-47d2-8739-c1330ebc262f', '/DAzAAAAAAAAAP/wDwUAdPOnf0//fWs9ywAAAAAAEwAFU0FQUwEBCkNVRUkAnzQ5NCOXjA3T', 'PTS-6399147467\n']

['IN', 'COOKHD-6216.dfw.1080', 'a6976ddc-25f4-49a1-aaa4-18dd46d2cc03', '/DAzAAAAAAAAAP/wDwUAdPKZf0//cv6+NwAAAAAAEwAFU0FQUwEBCkNVRUkAnzQ5NCNv8Rbc', 'PTS-6224264759\n']

['IN', 'COOKHD-6216.dfw.1080', '26afad08-c4b5-4a41-ac76-46729fce97bf', '/DAzAAAAAAAAAP/wDwUAdPGLf0//aoc32gAAAAAAEwAFU0FQUwEBCkNVRUkAnzQ5NCNuF81g', 'PTS-6082213850\n']

['IN', 'COOKHD-6216.dfw.1080', 'd49173b9-e53f-4894-ba75-cd4f7230505d', '/DAzAAAAAAAAAP/wDwUAdPBff0//YPBAQgAAAAAAEwAFU0FQUwEBCkNVRUkAnzQ5NCMY208M', 'PTS-5921325122\n']

['IN', 'COOKHD-6216.dfw.1080', 'b7898e4e-6ed4-456f-b078-a341d9fb6eb1', '/DAzAAAAAAAAAP/wDwUAdO9Hf0//VzWiXAAAAAAAEwAFU0FQUwEBCkNVRUkAnzQ5NCOM8wZX', 'PTS-5758100060\n']
